<svg id="SvgjsSvg2408" width="100%" height="100%" xmlns="http://www.w3.org/2000/svg" version="1.1"
    xlink="http://www.w3.org/1999/xlink" xmlns:svgjs="http://svgjs.com/svgjs"
    preserveAspectRatio="xMidYMid meet" viewBox="0 0 287.96795654296875 147.00001525878906"
    overflow="visible">
    <defs id="SvgjsDefs2409"></defs>
    <g id="SvgjsG2410" transform="scale(0.9410409064720568)" opacity="1">
        <g id="SvgjsG2411" class="pMoOFzA2m" transform="translate(0, 0) scale(1)"
            light-content="false" fill="#FFF">
            <path
                d="M0 0 h 306.01 v 4 h -306.01 Z M0 0 h 4 v 156.21 h -4 Z M306.01 156.21 h -306.01 v -4 h 306.01 Z M306.01 156.21 h -4 v -156.21 h 4 Z"
                fill-rule="nonzero"></path>
        </g>
        <g id="SvgjsG2412" class="text"
            transform="translate(152.8000030517578, 69.93999862670898) scale(1)"
            light-content="false" fill="#FFF">
            <path
                d="M-102.82 -23.14C-97.92 -25.16 -95.46 -28.49 -95.46 -33.13C-95.46 -35.11 -95.95 -36.84 -96.93 -38.32C-99.39 -42.07 -104.58 -43.95 -112.49 -43.95L-128.8 -43.95L-128.8 -40.72C-126.73 -40.72 -125.31 -40.45 -124.53 -39.9C-124.1 -39.59 -123.88 -38.8 -123.88 -37.53L-123.88 -6.42C-123.88 -5.83 -123.93 -5.33 -124.03 -4.92C-124.13 -4.51 -124.43 -4.13 -124.94 -3.76C-125.44 -3.4 -126.72 -3.22 -128.77 -3.22L-128.77 0L-110.99 0C-104.12 0 -99.27 -1.3 -96.46 -3.9C-95.6 -4.68 -94.82 -5.71 -94.13 -6.99C-93.44 -8.27 -93.09 -10.05 -93.09 -12.33C-93.09 -17.84 -96.33 -21.45 -102.82 -23.14ZM-113.31 -24.08L-117.29 -24.08L-117.29 -40.72L-113.04 -40.72C-109.27 -40.72 -106.61 -39.98 -105.06 -38.48C-103.51 -36.99 -102.73 -34.92 -102.73 -32.29C-102.73 -31.04 -102.92 -29.9 -103.32 -28.89C-104.51 -25.8 -107.84 -24.2 -113.31 -24.08ZM-111.55 -3.22L-117.29 -3.22L-117.29 -21.45L-114.42 -21.45L-113.1 -21.45L-111.84 -21.45C-108.29 -21.37 -105.49 -20.54 -103.45 -18.96C-101.41 -17.37 -100.39 -15.23 -100.39 -12.54C-100.39 -11.23 -100.57 -10.02 -100.94 -8.91C-102.19 -5.12 -105.73 -3.22 -111.55 -3.22Z M-88.58 -3.22L-88.58 0L-71.94 0L-71.94 -3.22C-74.73 -3.22 -76.41 -3.37 -76.96 -3.68C-77.52 -3.98 -77.86 -4.35 -77.99 -4.79C-78.12 -5.23 -78.18 -5.82 -78.18 -6.56L-78.18 -22.24C-77.5 -23.29 -76.7 -24.13 -75.79 -24.74C-74.88 -25.36 -74.03 -25.72 -73.23 -25.84C-73.31 -24.67 -72.99 -23.69 -72.28 -22.91C-71.56 -22.13 -70.66 -21.74 -69.57 -21.74C-68.45 -21.74 -67.5 -22.13 -66.72 -22.91C-65.94 -23.69 -65.55 -24.7 -65.55 -25.93C-65.55 -27.16 -65.96 -28.19 -66.77 -29.03C-67.58 -29.87 -68.72 -30.29 -70.18 -30.29C-70.94 -30.29 -71.7 -30.18 -72.47 -29.94C-74.59 -29.26 -76.5 -27.93 -78.18 -25.96L-78.18 -26.54C-78.18 -27.87 -78.35 -28.83 -78.69 -29.41C-79.03 -30 -79.7 -30.29 -80.7 -30.29C-81.21 -30.29 -81.68 -30.23 -82.12 -30.1C-82.56 -29.98 -83.29 -29.77 -84.32 -29.49C-85.34 -29.2 -86.78 -29.06 -88.64 -29.06L-88.64 -25.84L-86.85 -25.84C-85.78 -25.84 -85.12 -25.63 -84.87 -25.2C-84.63 -24.77 -84.51 -23.85 -84.51 -22.44L-84.51 -6.3C-84.51 -5.71 -84.55 -5.22 -84.64 -4.83C-84.73 -4.44 -84.99 -4.08 -85.42 -3.74C-85.84 -3.39 -86.9 -3.22 -88.58 -3.22Z M-36.72 -7L-36.72 -20.16C-36.72 -21.82 -36.94 -23.28 -37.37 -24.55C-38.68 -28.38 -42.28 -30.29 -48.18 -30.29C-51.48 -30.29 -54.28 -29.58 -56.59 -28.17C-58.89 -26.75 -60.04 -24.9 -60.04 -22.62C-60.04 -21.46 -59.7 -20.57 -59 -19.92C-58.31 -19.28 -57.43 -18.96 -56.37 -18.96C-55.3 -18.96 -54.39 -19.3 -53.64 -19.98C-52.89 -20.66 -52.51 -21.57 -52.51 -22.71C-52.51 -23.84 -53 -24.77 -53.98 -25.49C-52.59 -26.46 -50.99 -26.95 -49.17 -26.95C-47.36 -26.95 -45.88 -26.57 -44.75 -25.8C-43.62 -25.02 -43.05 -24.06 -43.05 -22.91C-43.05 -22.27 -43.17 -21.68 -43.42 -21.17C-43.66 -20.65 -44.18 -20.14 -44.99 -19.64C-45.79 -19.15 -48.22 -18.25 -52.28 -16.96C-58.69 -14.89 -61.89 -11.69 -61.89 -7.35C-61.89 -4.85 -61.01 -2.91 -59.24 -1.51C-57.47 -0.11 -55.4 0.59 -53.01 0.59C-48.68 0.59 -45.09 -0.98 -42.26 -4.1C-41.85 -2.7 -41.11 -1.56 -40.03 -0.7C-38.96 0.16 -37.66 0.59 -36.14 0.59C-33.79 0.59 -32.08 -0.23 -31.01 -1.87C-30.13 -3.16 -29.69 -4.69 -29.69 -6.45C-29.69 -6.99 -29.7 -7.39 -29.72 -7.65L-32.8 -7.65C-32.8 -6.08 -33 -5 -33.41 -4.41C-33.82 -3.81 -34.47 -3.52 -35.35 -3.52C-36.26 -3.52 -36.72 -4.68 -36.72 -7ZM-53.51 -11.44C-52.65 -12.6 -51.36 -13.55 -49.64 -14.3C-49.29 -14.43 -48.42 -14.77 -47.02 -15.29C-45.62 -15.82 -44.3 -16.41 -43.05 -17.05L-43.05 -12.54C-43.05 -9.69 -43.79 -7.47 -45.28 -5.87C-46.76 -4.28 -48.64 -3.49 -50.9 -3.49C-52.02 -3.49 -52.94 -3.84 -53.69 -4.54C-54.43 -5.24 -54.8 -6.28 -54.8 -7.65C-54.8 -9.01 -54.37 -10.28 -53.51 -11.44Z M-27.82 -3.31L-27.82 0L-2.97 0L-2.09 -9.87L-5.99 -9.87C-6.15 -8.76 -6.34 -7.78 -6.58 -6.94C-7.26 -4.46 -8.82 -3.22 -11.26 -3.22L-20.49 -3.22L-2.68 -26.22L-2.68 -29.71L-26.88 -29.71L-27.76 -19.1L-23.95 -19.07C-23.81 -20.07 -23.63 -21.02 -23.39 -21.91C-22.65 -24.98 -21.18 -26.51 -18.97 -26.51L-9.77 -26.51Z M10.33 -35.71C11.6 -35.71 12.68 -36.14 13.56 -36.99C14.45 -37.84 14.9 -38.88 14.9 -40.11C14.9 -41.36 14.45 -42.42 13.55 -43.29C12.65 -44.16 11.58 -44.59 10.33 -44.59C9.08 -44.59 8 -44.16 7.1 -43.29C6.21 -42.42 5.76 -41.36 5.76 -40.11C5.76 -38.88 6.2 -37.84 7.09 -36.99C7.98 -36.14 9.06 -35.71 10.33 -35.71ZM2.86 -3.22L2.86 0L17.94 0L17.94 -3.22C16.09 -3.22 14.83 -3.48 14.17 -3.98C13.77 -4.3 13.58 -5.07 13.58 -6.3L13.58 -26.54C13.58 -27.85 13.42 -28.8 13.1 -29.4C12.77 -30 12.1 -30.29 11.09 -30.29C10.56 -30.29 10.07 -30.23 9.62 -30.1C9.17 -29.98 8.4 -29.77 7.31 -29.49C6.22 -29.2 4.71 -29.06 2.8 -29.06L2.8 -25.84L4.91 -25.84C5.98 -25.84 6.64 -25.63 6.88 -25.2C7.13 -24.77 7.25 -23.85 7.25 -22.44L7.25 -6.3C7.25 -5.71 7.2 -5.22 7.1 -4.83C7.01 -4.44 6.73 -4.08 6.27 -3.74C5.81 -3.39 4.67 -3.22 2.86 -3.22Z M22.13 -3.22L22.13 0L37.31 0L37.31 -3.22C35.42 -3.22 34.21 -3.44 33.69 -3.88C33.17 -4.32 32.92 -5.15 32.92 -6.36L32.92 -42.19C32.92 -43.52 32.74 -44.47 32.4 -45.06C32.06 -45.64 31.38 -45.94 30.37 -45.94C29.84 -45.94 29.34 -45.87 28.86 -45.75C28.38 -45.62 27.58 -45.42 26.47 -45.13C25.36 -44.85 23.81 -44.71 21.84 -44.71L21.84 -41.48L24.21 -41.48C25.31 -41.48 25.98 -41.27 26.22 -40.84C26.46 -40.41 26.59 -39.49 26.59 -38.09L26.59 -6.36C26.59 -5.21 26.27 -4.39 25.63 -3.93C25 -3.46 23.83 -3.22 22.13 -3.22Z M49.29 -35.71C50.56 -35.71 51.64 -36.14 52.53 -36.99C53.42 -37.84 53.86 -38.88 53.86 -40.11C53.86 -41.36 53.41 -42.42 52.51 -43.29C51.62 -44.16 50.54 -44.59 49.29 -44.59C48.04 -44.59 46.97 -44.16 46.07 -43.29C45.17 -42.42 44.72 -41.36 44.72 -40.11C44.72 -38.88 45.17 -37.84 46.05 -36.99C46.94 -36.14 48.02 -35.71 49.29 -35.71ZM41.82 -3.22L41.82 0L56.91 0L56.91 -3.22C55.05 -3.22 53.79 -3.48 53.13 -3.98C52.74 -4.3 52.54 -5.07 52.54 -6.3L52.54 -26.54C52.54 -27.85 52.38 -28.8 52.06 -29.4C51.74 -30 51.07 -30.29 50.05 -30.29C49.53 -30.29 49.04 -30.23 48.59 -30.1C48.14 -29.98 47.37 -29.77 46.27 -29.49C45.18 -29.2 43.68 -29.06 41.76 -29.06L41.76 -25.84L43.87 -25.84C44.95 -25.84 45.61 -25.63 45.85 -25.2C46.09 -24.77 46.22 -23.85 46.22 -22.44L46.22 -6.3C46.22 -5.71 46.17 -5.22 46.07 -4.83C45.97 -4.44 45.69 -4.08 45.23 -3.74C44.78 -3.39 43.64 -3.22 41.82 -3.22Z M87.03 -7L87.03 -20.16C87.03 -21.82 86.81 -23.28 86.38 -24.55C85.07 -28.38 81.47 -30.29 75.57 -30.29C72.27 -30.29 69.47 -29.58 67.16 -28.17C64.86 -26.75 63.71 -24.9 63.71 -22.62C63.71 -21.46 64.05 -20.57 64.75 -19.92C65.44 -19.28 66.32 -18.96 67.38 -18.96C68.45 -18.96 69.36 -19.3 70.11 -19.98C70.86 -20.66 71.24 -21.57 71.24 -22.71C71.24 -23.84 70.75 -24.77 69.77 -25.49C71.16 -26.46 72.76 -26.95 74.58 -26.95C76.39 -26.95 77.87 -26.57 79 -25.8C80.13 -25.02 80.7 -24.06 80.7 -22.91C80.7 -22.27 80.58 -21.68 80.33 -21.17C80.09 -20.65 79.57 -20.14 78.76 -19.64C77.96 -19.15 75.53 -18.25 71.47 -16.96C65.06 -14.89 61.86 -11.69 61.86 -7.35C61.86 -4.85 62.74 -2.91 64.51 -1.51C66.28 -0.11 68.35 0.59 70.74 0.59C75.07 0.59 78.66 -0.98 81.49 -4.1C81.9 -2.7 82.64 -1.56 83.72 -0.7C84.79 0.16 86.09 0.59 87.61 0.59C89.96 0.59 91.67 -0.23 92.74 -1.87C93.62 -3.16 94.06 -4.69 94.06 -6.45C94.06 -6.99 94.05 -7.39 94.03 -7.65L90.95 -7.65C90.95 -6.08 90.75 -5 90.34 -4.41C89.93 -3.81 89.28 -3.52 88.4 -3.52C87.49 -3.52 87.03 -4.68 87.03 -7ZM70.24 -11.44C71.1 -12.6 72.39 -13.55 74.11 -14.3C74.46 -14.43 75.33 -14.77 76.73 -15.29C78.13 -15.82 79.45 -16.41 80.7 -17.05L80.7 -12.54C80.7 -9.69 79.96 -7.47 78.47 -5.87C76.99 -4.28 75.11 -3.49 72.85 -3.49C71.73 -3.49 70.81 -3.84 70.06 -4.54C69.32 -5.24 68.95 -6.28 68.95 -7.65C68.95 -9.01 69.38 -10.28 70.24 -11.44Z M113.95 -25.9C116 -25.9 117.52 -24.9 118.52 -22.91C119.03 -21.89 119.28 -20.03 119.28 -17.31L119.28 -6.36C119.28 -5.77 119.25 -5.28 119.19 -4.89C119.14 -4.5 118.93 -4.13 118.56 -3.76C118.2 -3.4 117.13 -3.22 115.36 -3.22L115.36 0L129.21 0L129.21 -3.22C127.55 -3.22 126.54 -3.42 126.17 -3.82C125.8 -4.22 125.61 -5.07 125.61 -6.36L125.61 -17.7C125.61 -26.07 122.45 -30.26 116.12 -30.26C115.24 -30.26 114.34 -30.16 113.42 -29.94C110.67 -29.32 108.25 -28.12 106.16 -26.37C106.16 -27.68 106 -28.63 105.67 -29.22C105.35 -29.82 104.67 -30.12 103.64 -30.12C103.13 -30.12 102.66 -30.05 102.22 -29.93C101.78 -29.8 101.04 -29.59 99.99 -29.31C98.95 -29.03 97.5 -28.89 95.67 -28.89L95.67 -25.66L97.46 -25.66C98.55 -25.66 99.22 -25.45 99.46 -25.02C99.71 -24.59 99.83 -23.67 99.83 -22.27L99.83 -6.3C99.83 -5.71 99.78 -5.22 99.68 -4.83C99.58 -4.44 99.32 -4.08 98.89 -3.74C98.46 -3.39 97.41 -3.22 95.73 -3.22L95.73 0L110.61 0L110.61 -3.22C108.72 -3.22 107.43 -3.49 106.74 -4.01C106.35 -4.33 106.16 -5.09 106.16 -6.3L106.16 -22.91C108.15 -24.9 110.75 -25.9 113.95 -25.9Z"></path>
        </g>
        <g id="SvgjsG2413" class="text"
            transform="translate(153.09500122070312, 131.61999816894533) scale(1)"
            light-content="false" fill="#FFF">
            <path
                d="M-77.12 -3.22C-80.8 -3.22 -83.93 -4.85 -86.53 -8.1C-89.13 -11.35 -90.42 -16.08 -90.42 -22.28C-90.42 -28.48 -89.15 -33.13 -86.59 -36.23C-84.03 -39.32 -80.71 -40.87 -76.63 -40.87C-72.54 -40.87 -69.71 -39.36 -68.13 -36.33C-68.83 -35.94 -69.4 -35.38 -69.83 -34.64C-70.26 -33.91 -70.47 -33.17 -70.47 -32.42C-70.47 -31.67 -70.37 -31.02 -70.15 -30.47C-69.45 -28.73 -68.07 -27.86 -66.02 -27.86C-65.36 -27.86 -64.74 -27.99 -64.17 -28.24C-62.26 -29.08 -61.3 -30.72 -61.3 -33.16C-61.3 -36.43 -62.82 -39.14 -65.84 -41.29C-68.87 -43.45 -72.74 -44.53 -77.45 -44.53C-79.83 -44.53 -82.02 -44.23 -84.01 -43.62C-87.88 -42.45 -90.97 -40.37 -93.3 -37.38C-96.58 -33.2 -98.22 -28.07 -98.22 -21.97C-98.22 -14.34 -96.09 -8.54 -91.83 -4.57C-88.16 -1.13 -83.75 0.59 -78.59 0.59C-73.43 0.59 -69.21 -0.7 -65.93 -3.28C-64.45 -4.43 -63.3 -5.75 -62.48 -7.22C-61.66 -8.7 -61.25 -10.2 -61.25 -11.72L-65.46 -11.72C-67.08 -6.05 -70.97 -3.22 -77.12 -3.22Z M-54.18 -15C-54.18 -10.33 -52.96 -6.57 -50.51 -3.71C-48.06 -0.84 -44.47 0.59 -39.74 0.59C-35.01 0.59 -31.43 -0.89 -28.99 -3.84C-26.55 -6.79 -25.33 -10.64 -25.33 -15.4C-25.33 -20.15 -26.65 -23.82 -29.3 -26.41C-31.94 -29 -35.42 -30.29 -39.74 -30.29C-44.02 -30.29 -47.45 -29 -50.02 -26.43C-51.33 -25.12 -52.35 -23.47 -53.09 -21.49C-53.82 -19.51 -54.18 -17.34 -54.18 -15ZM-39.74 -2.93C-42.01 -2.93 -43.85 -3.96 -45.26 -6.04C-46.68 -8.11 -47.39 -11.07 -47.39 -14.94C-47.39 -16.95 -47.19 -18.71 -46.8 -20.21C-45.71 -24.59 -43.35 -26.78 -39.74 -26.78C-38.63 -26.78 -37.6 -26.54 -36.67 -26.07C-33.62 -24.57 -32.09 -20.8 -32.09 -14.77C-32.09 -11.02 -32.8 -8.11 -34.22 -6.04C-35.63 -3.96 -37.48 -2.93 -39.74 -2.93Z M2.42 -4.63C3.2 -1.15 5.19 0.59 8.39 0.59C10 0.59 11.26 0.23 12.2 -0.47L12.2 -3.31C11.73 -3.1 11.18 -2.99 10.53 -2.99C9.26 -2.99 8.46 -3.42 8.13 -4.28C7.97 -4.73 7.9 -5.9 7.9 -7.79L7.9 -41.92C7.9 -43.23 7.73 -44.18 7.41 -44.78C7.09 -45.38 6.41 -45.67 5.38 -45.67C4.85 -45.67 4.35 -45.61 3.88 -45.48C3.41 -45.36 2.63 -45.15 1.54 -44.87C0.44 -44.58 -1.07 -44.44 -3 -44.44L-3 -41.22L-0.92 -41.22C0.17 -41.22 0.86 -41 1.14 -40.56C1.43 -40.12 1.57 -39.21 1.57 -37.82L1.57 -27.01C-0.7 -29.2 -3.42 -30.29 -6.61 -30.29C-10.81 -30.29 -14.11 -28.95 -16.52 -26.25C-18.94 -23.55 -20.14 -19.47 -20.14 -14C-20.14 -9.55 -18.96 -6.01 -16.61 -3.37C-14.26 -0.73 -11.08 0.59 -7.08 0.59C-3.07 0.59 0.09 -1.15 2.42 -4.63ZM-9.39 -3.93C-12.01 -5.74 -13.32 -9.47 -13.32 -15.12C-13.32 -18.65 -12.66 -21.48 -11.35 -23.6C-10.04 -25.72 -8.24 -26.78 -5.93 -26.78C-4.78 -26.78 -3.73 -26.52 -2.77 -26.02C0.22 -24.41 1.71 -20.78 1.71 -15.12C1.71 -11.31 1.07 -8.33 -0.21 -6.17C-1.48 -4.01 -3.41 -2.93 -5.99 -2.93C-7.32 -2.93 -8.45 -3.26 -9.39 -3.93Z M42.96 -13.51C43 -14.29 43.02 -15.56 43.02 -17.31C43.02 -19.07 42.66 -20.94 41.94 -22.91C40.14 -27.83 36.19 -30.29 30.07 -30.29C25.42 -30.29 21.86 -28.8 19.37 -25.83C16.88 -22.85 15.63 -18.93 15.63 -14.06C15.63 -9.2 17.19 -5.43 20.32 -2.75C22.93 -0.53 26.04 0.59 29.63 0.59C33.23 0.59 36.08 -0.14 38.2 -1.58C40.32 -3.03 41.61 -4.79 42.06 -6.88L37.69 -6.86C36.32 -4.26 34.07 -2.96 30.92 -2.96C28.58 -2.96 26.61 -3.88 25.02 -5.71C23.43 -7.55 22.63 -10.15 22.63 -13.51ZM36.2 -17.9C36.2 -17.55 36.19 -17.19 36.17 -16.82L22.66 -16.82C22.78 -19.96 23.48 -22.42 24.76 -24.2C26.04 -25.98 27.82 -26.87 30.1 -26.87C34.17 -26.87 36.2 -23.88 36.2 -17.9Z M48.09 -3.22L48.09 0L64.73 0L64.73 -3.22C61.94 -3.22 60.26 -3.37 59.71 -3.68C59.15 -3.98 58.81 -4.35 58.68 -4.79C58.55 -5.23 58.49 -5.82 58.49 -6.56L58.49 -22.24C59.17 -23.29 59.97 -24.13 60.88 -24.74C61.79 -25.36 62.64 -25.72 63.44 -25.84C63.36 -24.67 63.68 -23.69 64.39 -22.91C65.11 -22.13 66.01 -21.74 67.1 -21.74C68.22 -21.74 69.17 -22.13 69.95 -22.91C70.73 -23.69 71.12 -24.7 71.12 -25.93C71.12 -27.16 70.71 -28.19 69.9 -29.03C69.09 -29.87 67.95 -30.29 66.49 -30.29C65.73 -30.29 64.97 -30.18 64.2 -29.94C62.08 -29.26 60.17 -27.93 58.49 -25.96L58.49 -26.54C58.49 -27.87 58.32 -28.83 57.98 -29.41C57.64 -30 56.97 -30.29 55.97 -30.29C55.46 -30.29 54.99 -30.23 54.55 -30.1C54.11 -29.98 53.38 -29.77 52.35 -29.49C51.33 -29.2 49.89 -29.06 48.03 -29.06L48.03 -25.84L49.82 -25.84C50.89 -25.84 51.55 -25.63 51.8 -25.2C52.04 -24.77 52.16 -23.85 52.16 -22.44L52.16 -6.3C52.16 -5.71 52.12 -5.22 52.03 -4.83C51.94 -4.44 51.68 -4.08 51.25 -3.74C50.83 -3.39 49.77 -3.22 48.09 -3.22Z M90.66 -25.81C90.13 -25.19 89.87 -24.42 89.87 -23.53C89.87 -22.63 90.21 -21.83 90.91 -21.14C91.6 -20.44 92.63 -20.1 94 -20.1C94.84 -20.1 95.72 -20.56 96.64 -21.47C97.16 -22 97.43 -22.81 97.43 -23.91C97.43 -25.78 96.35 -27.31 94.19 -28.49C92.03 -29.67 89.37 -30.26 86.21 -30.26C83.04 -30.26 80.44 -29.52 78.4 -28.04C76.36 -26.55 75.34 -24.58 75.34 -22.12C75.34 -18.92 77.34 -16.18 81.34 -13.92C82.59 -13.21 84.47 -12.25 86.97 -11.02C90.56 -9.26 92.36 -7.57 92.36 -5.95C92.36 -5.26 92.16 -4.71 91.77 -4.28C90.83 -3.2 89.21 -2.67 86.89 -2.67C84.58 -2.67 82.64 -3.12 81.08 -4.01C81.74 -4.68 82.08 -5.49 82.08 -6.45C82.08 -7.4 81.71 -8.23 80.99 -8.92C80.27 -9.61 79.36 -9.96 78.25 -9.96C77.15 -9.96 76.24 -9.59 75.53 -8.85C74.81 -8.11 74.46 -7.2 74.46 -6.12C74.46 -4.15 75.59 -2.54 77.86 -1.29C80.12 -0.04 83 0.59 86.48 0.59C89.97 0.59 92.77 -0.14 94.88 -1.6C96.99 -3.05 98.04 -5.13 98.04 -7.84C98.04 -10.54 96 -13.01 91.92 -15.23C90.81 -15.84 89.75 -16.42 88.75 -16.96C87.76 -17.51 86.8 -18.02 85.87 -18.49C84.94 -18.96 84.11 -19.44 83.36 -19.94C82.62 -20.43 82.02 -20.96 81.55 -21.52C81.08 -22.08 80.84 -22.65 80.84 -23.25C80.84 -23.84 80.95 -24.37 81.17 -24.84C81.97 -26.48 83.5 -27.3 85.77 -27.3C88.03 -27.3 89.66 -26.81 90.66 -25.81Z"></path>
        </g>
    </g>
</svg>