<svg id="SvgjsSvg1096" width="100%" height="100%" xmlns="http://www.w3.org/2000/svg" version="1.1" xlink="http://www.w3.org/1999/xlink" xmlns:svgjs="http://svgjs.com/svgjs" preserveAspectRatio="xMidYMid meet" viewBox="0 0 300 49.835018157958984" overflow="visible"><defs id="SvgjsDefs1097"></defs><g id="SvgjsG1098" transform="scale(0.3749475073489711)" opacity="1"><g id="SvgjsG1099" class="TKa6vIqmr" transform="translate(0, 0) scale(0.46866007453993613)" light-content="false" non-strokable="false" fill="#383838"><path d="M141.8 10C69.1 10 10 69.1 10 141.8s59.1 131.8 131.8 131.8 131.8-59.1 131.8-131.8S214.5 10 141.8 10zm0 257.7C72.5 267.7 16 211.2 16 141.8S72.5 16 141.8 16s125.8 56.5 125.8 125.8-56.4 125.9-125.8 125.9z"></path><path d="M141.8 0C63.6 0 0 63.6 0 141.8s63.6 141.8 141.8 141.8S283.6 220 283.6 141.8 220.1 0 141.8 0zm0 277.7C66.9 277.7 6 216.7 6 141.8S66.9 6 141.8 6s135.8 60.9 135.8 135.8-60.9 135.9-135.8 135.9z"></path></g><g id="SvgjsG1100" class="text" transform="translate(65.21599832153319, 87.84600152587889) scale(1)" light-content="false" fill="#383838"><path d="M-37.51 -43.4L-37.51 0L-10.85 0C-6.8 0 -3.82 -0.95 -1.92 -2.85C-0.02 -4.75 0.93 -7.73 0.93 -11.78C0.93 -13.47 0.72 -14.96 0.31 -16.24C-0.89 -19.8 -3.16 -22.03 -6.51 -22.94C-4.94 -23.56 -3.62 -24.64 -2.54 -26.19C-1.47 -27.74 -0.93 -29.76 -0.93 -32.24C-0.93 -36 -1.88 -38.8 -3.78 -40.64C-5.68 -42.48 -8.66 -43.4 -12.71 -43.4ZM-10.23 -13.64L-10.23 -12.4C-10.23 -9.92 -11.47 -8.68 -13.95 -8.68L-26.35 -8.68L-26.35 -17.36L-13.95 -17.36C-11.47 -17.36 -10.23 -16.12 -10.23 -13.64ZM-12.09 -31L-12.09 -29.76C-12.09 -27.28 -13.33 -26.04 -15.81 -26.04L-26.35 -26.04L-26.35 -34.72L-15.81 -34.72C-13.33 -34.72 -12.09 -33.48 -12.09 -31Z M39.99 -0.62L39.99 -8.99C37.3 -8.82 35.06 -8.68 33.26 -8.56C31.47 -8.43 30 -8.35 28.86 -8.31C27.72 -8.27 26.6 -8.23 25.48 -8.18C24.37 -8.14 23.29 -8.11 22.26 -8.09C21.22 -8.07 20.27 -8.06 19.41 -8.06C18.54 -8.06 17.83 -8.34 17.27 -8.9C16.71 -9.45 16.43 -10.21 16.43 -11.16L16.43 -31C16.43 -33.48 17.67 -34.72 20.15 -34.72L39.99 -34.72L39.99 -43.4L17.67 -43.4C13.33 -43.4 10.18 -42.42 8.22 -40.45C6.25 -38.49 5.27 -35.34 5.27 -31L5.27 -11.16C5.27 -7.11 6.22 -4.13 8.12 -2.23C10.02 -0.33 13 0.62 17.05 0.62C23.13 0.62 30.77 0.21 39.99 -0.62Z"></path></g><g id="SvgjsG1101" class="text" transform="translate(484.45200854492185, 61.526001220703115) scale(1)" light-content="false" fill="#383838"><path d="M-312.54 0L-312.54 -42L-297.54 -42C-295.46 -42 -293.65 -41.69 -292.11 -41.07C-290.57 -40.45 -289.31 -39.66 -288.33 -38.7C-287.35 -37.74 -286.62 -36.68 -286.14 -35.52C-285.66 -34.36 -285.42 -33.22 -285.42 -32.1C-285.42 -30.82 -285.7 -29.61 -286.26 -28.47C-286.82 -27.33 -287.57 -26.33 -288.51 -25.47C-289.45 -24.61 -290.54 -23.91 -291.78 -23.37C-293.02 -22.83 -294.34 -22.56 -295.74 -22.56L-295.74 -22.32C-294.86 -22.28 -293.7 -22.14 -292.26 -21.9C-290.82 -21.66 -289.42 -21.18 -288.06 -20.46C-286.7 -19.74 -285.53 -18.7 -284.55 -17.34C-283.57 -15.98 -283.08 -14.16 -283.08 -11.88C-283.08 -10.44 -283.33 -9.01 -283.83 -7.59C-284.33 -6.17 -285.14 -4.9 -286.26 -3.78C-287.38 -2.66 -288.86 -1.75 -290.7 -1.05C-292.54 -0.35 -294.8 0 -297.48 0ZM-307.08 -2.64L-298.38 -2.64C-297.1 -2.64 -295.89 -2.83 -294.75 -3.21C-293.61 -3.59 -292.62 -4.16 -291.78 -4.92C-290.94 -5.68 -290.27 -6.6 -289.77 -7.68C-289.27 -8.76 -289.02 -10 -289.02 -11.4C-289.02 -12.68 -289.25 -13.9 -289.71 -15.06C-290.17 -16.22 -290.87 -17.24 -291.81 -18.12C-292.75 -19 -293.94 -19.7 -295.38 -20.22C-296.82 -20.74 -298.52 -21 -300.48 -21L-307.08 -21ZM-307.08 -23.64L-299.88 -23.64C-298.68 -23.64 -297.55 -23.84 -296.49 -24.24C-295.43 -24.64 -294.49 -25.2 -293.67 -25.92C-292.85 -26.64 -292.21 -27.5 -291.75 -28.5C-291.29 -29.5 -291.06 -30.58 -291.06 -31.74C-291.06 -32.66 -291.22 -33.58 -291.54 -34.5C-291.86 -35.42 -292.37 -36.24 -293.07 -36.96C-293.77 -37.68 -294.67 -38.26 -295.77 -38.7C-296.87 -39.14 -298.2 -39.36 -299.76 -39.36L-307.08 -39.36Z M-272.88 -42L-259.26 -42C-256.58 -42 -254.36 -41.63 -252.6 -40.89C-250.84 -40.15 -249.45 -39.23 -248.43 -38.13C-247.41 -37.03 -246.69 -35.84 -246.27 -34.56C-245.85 -33.28 -245.64 -32.1 -245.64 -31.02C-245.64 -29.82 -245.84 -28.59 -246.24 -27.33C-246.64 -26.07 -247.28 -24.9 -248.16 -23.82C-249.04 -22.74 -250.17 -21.84 -251.55 -21.12C-252.93 -20.4 -254.58 -19.98 -256.5 -19.86L-256.5 -19.62L-255.9 -19.32C-255.42 -19.08 -255.01 -18.78 -254.67 -18.42C-254.33 -18.06 -253.89 -17.48 -253.35 -16.68C-252.81 -15.88 -252.08 -14.75 -251.16 -13.29C-250.24 -11.83 -248.94 -9.88 -247.26 -7.44C-246.7 -6.6 -246.16 -5.85 -245.64 -5.19C-245.12 -4.53 -244.58 -3.97 -244.02 -3.51C-243.46 -3.05 -242.86 -2.7 -242.22 -2.46C-241.58 -2.22 -240.84 -2.1 -240 -2.1C-239.8 -2.1 -239.6 -2.11 -239.4 -2.13C-239.2 -2.15 -239 -2.18 -238.8 -2.22L-238.8 0C-239.36 0.32 -239.92 0.52 -240.48 0.6C-241.04 0.68 -241.76 0.72 -242.64 0.72C-243.84 0.72 -244.87 0.56 -245.73 0.24C-246.59 -0.08 -247.36 -0.51 -248.04 -1.05C-248.72 -1.59 -249.35 -2.24 -249.93 -3C-250.51 -3.76 -251.1 -4.6 -251.7 -5.52L-256.44 -12.54C-257.16 -13.66 -257.78 -14.6 -258.3 -15.36C-258.82 -16.12 -259.38 -16.74 -259.98 -17.22C-260.58 -17.7 -261.25 -18.04 -261.99 -18.24C-262.73 -18.44 -263.66 -18.54 -264.78 -18.54L-267.42 -18.54L-267.42 0L-272.88 0ZM-267.42 -39.36L-267.42 -21.24L-261.24 -21.24C-259.64 -21.24 -258.23 -21.52 -257.01 -22.08C-255.79 -22.64 -254.76 -23.37 -253.92 -24.27C-253.08 -25.17 -252.45 -26.17 -252.03 -27.27C-251.61 -28.37 -251.4 -29.46 -251.4 -30.54C-251.4 -31.82 -251.63 -33 -252.09 -34.08C-252.55 -35.16 -253.22 -36.09 -254.1 -36.87C-254.98 -37.65 -256.03 -38.26 -257.25 -38.7C-258.47 -39.14 -259.84 -39.36 -261.36 -39.36Z M-206.46 -12.36L-227.16 -12.36L-232.44 0L-235.2 0L-217.44 -42L-214.44 -42L-194.88 0L-200.7 0ZM-207.72 -15.06L-217.14 -35.28L-217.38 -35.28L-226.02 -15.06Z M-189.78 -42L-155.94 -42L-182.58 -3.3L-154.92 -3.3L-154.92 0L-191.28 0L-164.4 -38.7L-189.78 -38.7Z M-143.52 -42L-138.06 -42L-138.06 0L-143.52 0Z M-121.26 0L-94.14 0L-94.14 -3.3L-115.8 -3.3L-115.8 -42L-121.26 -42Z M-85.14 -42L-58.02 -42L-58.02 -38.7L-79.68 -38.7L-79.68 -23.64L-61.08 -23.64L-61.08 -20.88L-79.68 -20.88L-79.68 -3.3L-58.02 -3.3L-58.02 0L-85.14 0Z M-25.68 -12.36L-46.38 -12.36L-51.66 0L-54.42 0L-36.66 -42L-33.66 -42L-14.1 0L-19.92 0ZM-26.94 -15.06L-36.36 -35.28L-36.6 -35.28L-45.24 -15.06Z M28.74 -42L31.5 -42L31.5 0.72L31.2 0.72L-2.1 -32.1L-2.34 -32.1L-2.34 0L-5.1 0L-5.1 -42.72L-4.8 -42.72L28.5 -9.9L28.74 -9.9Z M102.24 -7.74L104.04 -6.12C103.52 -5.52 102.76 -4.82 101.76 -4.02C100.76 -3.22 99.51 -2.47 98.01 -1.77C96.51 -1.07 94.75 -0.48 92.73 0C90.71 0.48 88.42 0.72 85.86 0.72C81.82 0.72 78.34 0.09 75.42 -1.17C72.5 -2.43 70.1 -4.09 68.22 -6.15C66.34 -8.21 64.95 -10.57 64.05 -13.23C63.15 -15.89 62.7 -18.62 62.7 -21.42C62.7 -24.66 63.26 -27.59 64.38 -30.21C65.5 -32.83 67.08 -35.07 69.12 -36.93C71.16 -38.79 73.61 -40.22 76.47 -41.22C79.33 -42.22 82.5 -42.72 85.98 -42.72C88.38 -42.72 90.52 -42.48 92.4 -42C94.28 -41.52 95.92 -40.86 97.32 -40.02C98.72 -39.18 99.89 -38.18 100.83 -37.02C101.77 -35.86 102.54 -34.6 103.14 -33.24L98.7 -33.24C98.42 -34.08 97.93 -34.91 97.23 -35.73C96.53 -36.55 95.63 -37.28 94.53 -37.92C93.43 -38.56 92.17 -39.08 90.75 -39.48C89.33 -39.88 87.76 -40.08 86.04 -40.08C83.52 -40.08 81.19 -39.62 79.05 -38.7C76.91 -37.78 75.06 -36.5 73.5 -34.86C71.94 -33.22 70.73 -31.27 69.87 -29.01C69.01 -26.75 68.58 -24.26 68.58 -21.54C68.58 -18.98 68.99 -16.52 69.81 -14.16C70.63 -11.8 71.84 -9.72 73.44 -7.92C75.04 -6.12 77.04 -4.68 79.44 -3.6C81.84 -2.52 84.6 -1.98 87.72 -1.98C93.32 -1.98 98.16 -3.9 102.24 -7.74Z M108.24 -21C108.24 -23.28 108.67 -25.7 109.53 -28.26C110.39 -30.82 111.74 -33.17 113.58 -35.31C115.42 -37.45 117.76 -39.22 120.6 -40.62C123.44 -42.02 126.84 -42.72 130.8 -42.72C134.8 -42.72 138.27 -42.01 141.21 -40.59C144.15 -39.17 146.58 -37.38 148.5 -35.22C150.42 -33.06 151.84 -30.71 152.76 -28.17C153.68 -25.63 154.14 -23.24 154.14 -21C154.14 -19.52 153.93 -17.96 153.51 -16.32C153.09 -14.68 152.47 -13.05 151.65 -11.43C150.83 -9.81 149.78 -8.27 148.5 -6.81C147.22 -5.35 145.71 -4.06 143.97 -2.94C142.23 -1.82 140.27 -0.93 138.09 -0.27C135.91 0.39 133.48 0.72 130.8 0.72C126.84 0.72 123.44 0.01 120.6 -1.41C117.76 -2.83 115.42 -4.62 113.58 -6.78C111.74 -8.94 110.39 -11.29 109.53 -13.83C108.67 -16.37 108.24 -18.76 108.24 -21ZM114.12 -21C114.12 -18.2 114.55 -15.63 115.41 -13.29C116.27 -10.95 117.45 -8.94 118.95 -7.26C120.45 -5.58 122.22 -4.27 124.26 -3.33C126.3 -2.39 128.52 -1.92 130.92 -1.92C133.28 -1.92 135.51 -2.39 137.61 -3.33C139.71 -4.27 141.55 -5.58 143.13 -7.26C144.71 -8.94 145.96 -10.95 146.88 -13.29C147.8 -15.63 148.26 -18.2 148.26 -21C148.26 -23.8 147.8 -26.37 146.88 -28.71C145.96 -31.05 144.71 -33.06 143.13 -34.74C141.55 -36.42 139.71 -37.73 137.61 -38.67C135.51 -39.61 133.28 -40.08 130.92 -40.08C128.52 -40.08 126.3 -39.61 124.26 -38.67C122.22 -37.73 120.45 -36.42 118.95 -34.74C117.45 -33.06 116.27 -31.05 115.41 -28.71C114.55 -26.37 114.12 -23.8 114.12 -21Z M164.94 0L179.46 0C182.46 0 185.28 -0.52 187.92 -1.56C190.56 -2.6 192.87 -4.06 194.85 -5.94C196.83 -7.82 198.39 -10.05 199.53 -12.63C200.67 -15.21 201.24 -18.04 201.24 -21.12C201.24 -24.08 200.69 -26.84 199.59 -29.4C198.49 -31.96 196.95 -34.17 194.97 -36.03C192.99 -37.89 190.62 -39.35 187.86 -40.41C185.1 -41.47 182.06 -42 178.74 -42L164.94 -42ZM170.4 -2.64L170.4 -39.36L177 -39.36C179.96 -39.36 182.58 -38.86 184.86 -37.86C187.14 -36.86 189.05 -35.51 190.59 -33.81C192.13 -32.11 193.3 -30.15 194.1 -27.93C194.9 -25.71 195.3 -23.4 195.3 -21C195.3 -18.84 194.96 -16.67 194.28 -14.49C193.6 -12.31 192.52 -10.34 191.04 -8.58C189.56 -6.82 187.67 -5.39 185.37 -4.29C183.07 -3.19 180.28 -2.64 177 -2.64Z M210.24 -42L237.36 -42L237.36 -38.7L215.7 -38.7L215.7 -23.64L234.3 -23.64L234.3 -20.88L215.7 -20.88L215.7 -3.3L237.36 -3.3L237.36 0L210.24 0Z M246.36 -42L259.98 -42C262.66 -42 264.88 -41.63 266.64 -40.89C268.4 -40.15 269.79 -39.23 270.81 -38.13C271.83 -37.03 272.55 -35.84 272.97 -34.56C273.39 -33.28 273.6 -32.1 273.6 -31.02C273.6 -29.82 273.4 -28.59 273 -27.33C272.6 -26.07 271.96 -24.9 271.08 -23.82C270.2 -22.74 269.07 -21.84 267.69 -21.12C266.31 -20.4 264.66 -19.98 262.74 -19.86L262.74 -19.62L263.34 -19.32C263.82 -19.08 264.23 -18.78 264.57 -18.42C264.91 -18.06 265.35 -17.48 265.89 -16.68C266.43 -15.88 267.16 -14.75 268.08 -13.29C269 -11.83 270.3 -9.88 271.98 -7.44C272.54 -6.6 273.08 -5.85 273.6 -5.19C274.12 -4.53 274.66 -3.97 275.22 -3.51C275.78 -3.05 276.38 -2.7 277.02 -2.46C277.66 -2.22 278.4 -2.1 279.24 -2.1C279.44 -2.1 279.64 -2.11 279.84 -2.13C280.04 -2.15 280.24 -2.18 280.44 -2.22L280.44 0C279.88 0.32 279.32 0.52 278.76 0.6C278.2 0.68 277.48 0.72 276.6 0.72C275.4 0.72 274.37 0.56 273.51 0.24C272.65 -0.08 271.88 -0.51 271.2 -1.05C270.52 -1.59 269.89 -2.24 269.31 -3C268.73 -3.76 268.14 -4.6 267.54 -5.52L262.8 -12.54C262.08 -13.66 261.46 -14.6 260.94 -15.36C260.42 -16.12 259.86 -16.74 259.26 -17.22C258.66 -17.7 257.99 -18.04 257.25 -18.24C256.51 -18.44 255.58 -18.54 254.46 -18.54L251.82 -18.54L251.82 0L246.36 0ZM251.82 -39.36L251.82 -21.24L258 -21.24C259.6 -21.24 261.01 -21.52 262.23 -22.08C263.45 -22.64 264.48 -23.37 265.32 -24.27C266.16 -25.17 266.79 -26.17 267.21 -27.27C267.63 -28.37 267.84 -29.46 267.84 -30.54C267.84 -31.82 267.61 -33 267.15 -34.08C266.69 -35.16 266.02 -36.09 265.14 -36.87C264.26 -37.65 263.21 -38.26 261.99 -38.7C260.77 -39.14 259.4 -39.36 257.88 -39.36Z M284.46 -10.62L288.54 -10.62C288.58 -9.94 288.74 -9.11 289.02 -8.13C289.3 -7.15 289.84 -6.2 290.64 -5.28C291.44 -4.36 292.6 -3.57 294.12 -2.91C295.64 -2.25 297.66 -1.92 300.18 -1.92C303.34 -1.92 305.87 -2.52 307.77 -3.72C309.67 -4.92 310.62 -6.82 310.62 -9.42C310.62 -11.5 310.02 -13.16 308.82 -14.4C307.62 -15.64 306.11 -16.69 304.29 -17.55C302.47 -18.41 300.5 -19.18 298.38 -19.86C296.26 -20.54 294.29 -21.36 292.47 -22.32C290.65 -23.28 289.14 -24.48 287.94 -25.92C286.74 -27.36 286.14 -29.26 286.14 -31.62C286.14 -33.42 286.51 -35.02 287.25 -36.42C287.99 -37.82 288.99 -38.98 290.25 -39.9C291.51 -40.82 292.97 -41.52 294.63 -42C296.29 -42.48 298.04 -42.72 299.88 -42.72C301.64 -42.72 303.33 -42.51 304.95 -42.09C306.57 -41.67 308.02 -41.05 309.3 -40.23C310.58 -39.41 311.64 -38.41 312.48 -37.23C313.32 -36.05 313.86 -34.72 314.1 -33.24L310.02 -33.24C309.7 -35.6 308.63 -37.33 306.81 -38.43C304.99 -39.53 302.78 -40.08 300.18 -40.08C298.62 -40.08 297.24 -39.89 296.04 -39.51C294.84 -39.13 293.83 -38.63 293.01 -38.01C292.19 -37.39 291.57 -36.66 291.15 -35.82C290.73 -34.98 290.52 -34.08 290.52 -33.12C290.52 -31.4 291.14 -30.02 292.38 -28.98C293.62 -27.94 295.17 -27.02 297.03 -26.22C298.89 -25.42 300.91 -24.66 303.09 -23.94C305.27 -23.22 307.29 -22.33 309.15 -21.27C311.01 -20.21 312.56 -18.89 313.8 -17.31C315.04 -15.73 315.66 -13.7 315.66 -11.22C315.66 -9.42 315.3 -7.78 314.58 -6.3C313.86 -4.82 312.84 -3.56 311.52 -2.52C310.2 -1.48 308.61 -0.68 306.75 -0.12C304.89 0.44 302.8 0.72 300.48 0.72C298.2 0.72 296.1 0.45 294.18 -0.09C292.26 -0.63 290.59 -1.39 289.17 -2.37C287.75 -3.35 286.63 -4.54 285.81 -5.94C284.99 -7.34 284.54 -8.9 284.46 -10.62Z"></path></g><g id="SvgjsG1102" class="text" transform="translate(461.83201342773435, 106.60600061035154) scale(1)" light-content="false" fill="#383838"><path d="M-289.92 -10.5C-289.92 -11.64 -289.7 -12.85 -289.27 -14.13C-288.84 -15.41 -288.17 -16.58 -287.25 -17.65C-286.33 -18.73 -285.16 -19.61 -283.74 -20.31C-282.32 -21.01 -280.62 -21.36 -278.64 -21.36C-276.64 -21.36 -274.9 -21.01 -273.43 -20.29C-271.96 -19.58 -270.75 -18.69 -269.79 -17.61C-268.83 -16.53 -268.12 -15.36 -267.66 -14.08C-267.2 -12.82 -266.97 -11.62 -266.97 -10.5C-266.97 -9.76 -267.07 -8.98 -267.28 -8.16C-267.49 -7.34 -267.8 -6.52 -268.21 -5.71C-268.63 -4.9 -269.15 -4.13 -269.79 -3.4C-270.43 -2.67 -271.18 -2.03 -272.05 -1.47C-272.92 -0.91 -273.91 -0.46 -274.99 -0.13C-276.09 0.2 -277.3 0.36 -278.64 0.36C-280.62 0.36 -282.32 0.01 -283.74 -0.7C-285.16 -1.41 -286.33 -2.31 -287.25 -3.39C-288.17 -4.47 -288.84 -5.65 -289.27 -6.91C-289.7 -8.19 -289.92 -9.38 -289.92 -10.5ZM-286.98 -10.5C-286.98 -9.1 -286.76 -7.81 -286.33 -6.64C-285.91 -5.47 -285.31 -4.47 -284.56 -3.63C-283.81 -2.79 -282.93 -2.13 -281.91 -1.66C-280.89 -1.19 -279.78 -0.96 -278.58 -0.96C-277.4 -0.96 -276.28 -1.19 -275.23 -1.66C-274.18 -2.13 -273.26 -2.79 -272.47 -3.63C-271.69 -4.47 -271.06 -5.47 -270.6 -6.64C-270.14 -7.81 -269.91 -9.1 -269.91 -10.5C-269.91 -11.9 -270.14 -13.18 -270.6 -14.35C-271.06 -15.52 -271.69 -16.53 -272.47 -17.37C-273.26 -18.21 -274.18 -18.86 -275.23 -19.33C-276.28 -19.81 -277.4 -20.04 -278.58 -20.04C-279.78 -20.04 -280.89 -19.81 -281.91 -19.33C-282.93 -18.86 -283.81 -18.21 -284.56 -17.37C-285.31 -16.53 -285.91 -15.52 -286.33 -14.35C-286.76 -13.18 -286.98 -11.9 -286.98 -10.5Z M-250.53 0L-253.08 0L-253.08 -9.87C-253.08 -10.07 -253.1 -10.39 -253.14 -10.83C-253.18 -11.27 -253.3 -11.71 -253.51 -12.15C-253.72 -12.59 -254.06 -12.97 -254.52 -13.3C-254.98 -13.63 -255.63 -13.8 -256.47 -13.8C-256.99 -13.8 -257.49 -13.71 -257.98 -13.53C-258.47 -13.35 -258.91 -13.07 -259.29 -12.69C-259.67 -12.31 -259.97 -11.84 -260.19 -11.28C-260.41 -10.72 -260.52 -10.05 -260.52 -9.27L-260.52 0L-263.07 0L-263.07 -15L-260.52 -15L-260.52 -13.08L-260.4 -13.08L-259.92 -13.56C-259.22 -14.26 -258.51 -14.73 -257.79 -14.98C-257.07 -15.24 -256.42 -15.35 -255.84 -15.33C-254.52 -15.33 -253.5 -15.1 -252.78 -14.65C-252.06 -14.2 -251.53 -13.68 -251.2 -13.06C-250.87 -12.45 -250.68 -11.83 -250.62 -11.2C-250.56 -10.57 -250.53 -10.08 -250.53 -9.72Z M-232.32 -21L-232.32 0L-234.87 0L-234.87 -2.43L-234.99 -2.43C-235.75 -0.57 -237.31 0.36 -239.67 0.36C-240.67 0.36 -241.59 0.17 -242.43 -0.19C-243.27 -0.56 -244 -1.09 -244.6 -1.78C-245.21 -2.47 -245.69 -3.3 -246.03 -4.27C-246.37 -5.24 -246.54 -6.33 -246.54 -7.53C-246.54 -8.71 -246.37 -9.78 -246.03 -10.74C-245.69 -11.7 -245.22 -12.52 -244.6 -13.2C-244 -13.88 -243.27 -14.4 -242.43 -14.77C-241.59 -15.15 -240.67 -15.33 -239.67 -15.33C-239.19 -15.33 -238.71 -15.28 -238.24 -15.18C-237.78 -15.08 -237.33 -14.92 -236.91 -14.7C-236.49 -14.48 -236.11 -14.19 -235.78 -13.84C-235.45 -13.5 -235.19 -13.06 -234.99 -12.54L-234.87 -12.54L-234.87 -21ZM-234.87 -6L-234.87 -8.61C-234.87 -9.43 -234.99 -10.16 -235.21 -10.8C-235.44 -11.44 -235.75 -11.98 -236.13 -12.43C-236.51 -12.88 -236.95 -13.23 -237.45 -13.45C-237.95 -13.68 -238.48 -13.8 -239.04 -13.8C-239.66 -13.8 -240.25 -13.68 -240.81 -13.45C-241.37 -13.23 -241.87 -12.85 -242.29 -12.34C-242.72 -11.83 -243.07 -11.18 -243.31 -10.38C-243.56 -9.58 -243.69 -8.61 -243.69 -7.47C-243.69 -6.35 -243.56 -5.39 -243.31 -4.59C-243.07 -3.79 -242.73 -3.14 -242.31 -2.64C-241.89 -2.14 -241.4 -1.78 -240.84 -1.54C-240.28 -1.31 -239.68 -1.2 -239.04 -1.2C-238.46 -1.2 -237.91 -1.33 -237.4 -1.57C-236.89 -1.82 -236.46 -2.16 -236.08 -2.59C-235.71 -3.03 -235.42 -3.54 -235.2 -4.12C-234.98 -4.72 -234.87 -5.34 -234.87 -6Z M-214.2 -6.84L-225.6 -6.84C-225.6 -5.62 -225.42 -4.62 -225.06 -3.84C-224.7 -3.06 -224.25 -2.45 -223.71 -2.01C-223.17 -1.57 -222.58 -1.26 -221.95 -1.09C-221.32 -0.92 -220.73 -0.84 -220.17 -0.84C-219.67 -0.84 -219.22 -0.89 -218.8 -1C-218.4 -1.12 -218 -1.27 -217.62 -1.47C-217.24 -1.67 -216.87 -1.92 -216.49 -2.22C-216.12 -2.52 -215.73 -2.85 -215.31 -3.21L-214.35 -2.25C-215.15 -1.41 -216.09 -0.76 -217.17 -0.31C-218.25 0.14 -219.43 0.36 -220.71 0.36C-222.03 0.36 -223.18 0.14 -224.14 -0.31C-225.11 -0.76 -225.91 -1.36 -226.54 -2.11C-227.17 -2.86 -227.64 -3.72 -227.95 -4.66C-228.26 -5.62 -228.42 -6.59 -228.42 -7.59C-228.42 -8.79 -228.24 -9.87 -227.88 -10.81C-227.52 -11.76 -227.02 -12.57 -226.38 -13.24C-225.74 -13.92 -224.99 -14.43 -224.13 -14.77C-223.27 -15.12 -222.33 -15.3 -221.31 -15.3C-220.35 -15.3 -219.44 -15.14 -218.58 -14.82C-217.72 -14.5 -216.97 -14.02 -216.31 -13.38C-215.67 -12.74 -215.15 -11.93 -214.77 -10.95C-214.39 -9.97 -214.2 -8.81 -214.2 -7.47ZM-225.6 -8.04L-216.81 -8.04C-216.81 -9.98 -217.2 -11.5 -217.99 -12.61C-218.78 -13.72 -219.89 -14.28 -221.31 -14.28C-222.05 -14.28 -222.69 -14.1 -223.23 -13.75C-223.77 -13.41 -224.21 -12.94 -224.56 -12.36C-224.91 -11.78 -225.17 -11.11 -225.34 -10.36C-225.52 -9.61 -225.6 -8.84 -225.6 -8.04Z M-194.28 -15.33C-195.16 -15.33 -195.91 -15.25 -196.53 -15.1C-197.15 -14.95 -197.68 -14.76 -198.13 -14.52C-198.58 -14.28 -198.96 -14.01 -199.27 -13.71C-199.58 -13.41 -199.88 -13.11 -200.16 -12.81L-198.6 -11.25C-198.32 -11.71 -198.04 -12.12 -197.76 -12.49C-197.48 -12.87 -197.17 -13.17 -196.84 -13.42C-196.51 -13.68 -196.14 -13.87 -195.72 -14.01C-195.3 -14.15 -194.81 -14.22 -194.25 -14.22C-192.95 -14.22 -192.06 -13.82 -191.56 -13.02C-191.07 -12.22 -190.83 -11 -190.83 -9.36L-190.83 -8.07C-191.35 -8.71 -192.01 -9.21 -192.82 -9.55C-193.63 -9.9 -194.49 -10.08 -195.39 -10.08C-196.29 -10.08 -197.09 -9.92 -197.79 -9.6C-198.49 -9.28 -199.08 -8.86 -199.56 -8.35C-200.04 -7.84 -200.4 -7.27 -200.64 -6.63C-200.88 -5.99 -201 -5.35 -201 -4.71C-201 -4.09 -200.89 -3.48 -200.67 -2.88C-200.45 -2.28 -200.12 -1.74 -199.68 -1.26C-199.24 -0.78 -198.69 -0.39 -198.03 -0.09C-197.37 0.21 -196.61 0.36 -195.75 0.36C-194.85 0.36 -193.95 0.2 -193.05 -0.13C-192.15 -0.46 -191.41 -0.91 -190.83 -1.47L-190.83 0L-188.4 0L-188.4 -8.19C-188.4 -9.09 -188.43 -9.97 -188.49 -10.83C-188.55 -11.69 -188.76 -12.45 -189.13 -13.11C-189.51 -13.77 -190.09 -14.31 -190.89 -14.71C-191.69 -15.12 -192.82 -15.33 -194.28 -15.33ZM-190.83 -5.94L-190.83 -3.63C-191.01 -3.23 -191.24 -2.86 -191.52 -2.52C-191.8 -2.18 -192.12 -1.88 -192.46 -1.63C-192.81 -1.39 -193.18 -1.19 -193.57 -1.05C-193.96 -0.91 -194.35 -0.84 -194.73 -0.84C-195.13 -0.84 -195.55 -0.92 -195.99 -1.08C-196.43 -1.24 -196.83 -1.48 -197.19 -1.81C-197.55 -2.14 -197.84 -2.55 -198.07 -3.01C-198.3 -3.48 -198.42 -4.04 -198.42 -4.68C-198.42 -5.22 -198.33 -5.74 -198.15 -6.24C-197.97 -6.74 -197.71 -7.18 -197.38 -7.54C-197.05 -7.92 -196.65 -8.22 -196.17 -8.44C-195.69 -8.67 -195.16 -8.79 -194.58 -8.79C-194 -8.79 -193.5 -8.68 -193.08 -8.47C-192.66 -8.26 -192.3 -8.01 -192 -7.71C-191.7 -7.41 -191.46 -7.1 -191.26 -6.78C-191.07 -6.46 -190.93 -6.18 -190.83 -5.94Z M-172.14 -15L-169.59 -15L-169.59 0L-172.14 0ZM-172.5 -19.74C-172.5 -20.18 -172.34 -20.56 -172.02 -20.88C-171.7 -21.2 -171.32 -21.36 -170.88 -21.36C-170.44 -21.36 -170.06 -21.2 -169.74 -20.88C-169.42 -20.56 -169.26 -20.18 -169.26 -19.74C-169.26 -19.3 -169.42 -18.92 -169.74 -18.6C-170.06 -18.28 -170.44 -18.12 -170.88 -18.12C-171.32 -18.12 -171.7 -18.28 -172.02 -18.6C-172.34 -18.92 -172.5 -19.3 -172.5 -19.74Z M-151.32 0L-153.87 0L-153.87 -9.87C-153.87 -10.07 -153.89 -10.39 -153.93 -10.83C-153.97 -11.27 -154.09 -11.71 -154.3 -12.15C-154.51 -12.59 -154.85 -12.97 -155.31 -13.3C-155.77 -13.63 -156.42 -13.8 -157.26 -13.8C-157.78 -13.8 -158.28 -13.71 -158.77 -13.53C-159.26 -13.35 -159.7 -13.07 -160.08 -12.69C-160.46 -12.31 -160.76 -11.84 -160.98 -11.28C-161.2 -10.72 -161.31 -10.05 -161.31 -9.27L-161.31 0L-163.86 0L-163.86 -15L-161.31 -15L-161.31 -13.08L-161.19 -13.08L-160.71 -13.56C-160.01 -14.26 -159.3 -14.73 -158.58 -14.98C-157.86 -15.24 -157.21 -15.35 -156.63 -15.33C-155.31 -15.33 -154.29 -15.1 -153.57 -14.65C-152.85 -14.2 -152.32 -13.68 -151.99 -13.06C-151.66 -12.45 -151.47 -11.83 -151.41 -11.2C-151.35 -10.57 -151.32 -10.08 -151.32 -9.72Z M-131.79 -7.47C-131.79 -8.51 -131.97 -9.5 -132.33 -10.45C-132.69 -11.4 -133.21 -12.24 -133.87 -12.96C-134.55 -13.68 -135.36 -14.25 -136.3 -14.68C-137.25 -15.12 -138.32 -15.33 -139.5 -15.33C-140.7 -15.33 -141.79 -15.12 -142.75 -14.68C-143.72 -14.25 -144.55 -13.68 -145.21 -12.96C-145.88 -12.24 -146.4 -11.4 -146.77 -10.45C-147.14 -9.51 -147.33 -8.51 -147.33 -7.47C-147.33 -6.45 -147.14 -5.47 -146.77 -4.51C-146.4 -3.57 -145.89 -2.73 -145.21 -2.01C-144.55 -1.29 -143.73 -0.71 -142.75 -0.28C-141.79 0.14 -140.7 0.36 -139.5 0.36C-138.32 0.36 -137.25 0.15 -136.3 -0.27C-135.36 -0.69 -134.55 -1.26 -133.87 -1.98C-133.21 -2.7 -132.69 -3.54 -132.33 -4.48C-131.97 -5.44 -131.79 -6.43 -131.79 -7.47ZM-134.64 -7.47C-134.64 -6.09 -134.79 -4.96 -135.09 -4.09C-135.39 -3.22 -135.78 -2.55 -136.26 -2.07C-136.74 -1.59 -137.27 -1.27 -137.85 -1.09C-138.43 -0.92 -138.99 -0.84 -139.53 -0.84C-140.07 -0.84 -140.63 -0.92 -141.21 -1.09C-141.79 -1.27 -142.33 -1.59 -142.81 -2.07C-143.3 -2.55 -143.71 -3.22 -144.02 -4.09C-144.32 -4.96 -144.48 -6.09 -144.48 -7.47C-144.48 -8.87 -144.32 -10 -144.02 -10.87C-143.71 -11.74 -143.31 -12.42 -142.81 -12.9C-142.33 -13.38 -141.79 -13.71 -141.21 -13.87C-140.63 -14.04 -140.07 -14.13 -139.53 -14.13C-138.99 -14.13 -138.43 -14.04 -137.85 -13.87C-137.27 -13.71 -136.74 -13.38 -136.26 -12.9C-135.78 -12.42 -135.39 -11.74 -135.09 -10.87C-134.79 -10 -134.64 -8.87 -134.64 -7.47Z M-129.69 -15L-127.05 -15L-122.04 -2.97L-121.86 -2.97L-117 -15L-115.59 -15L-121.65 0L-123.45 0Z M-107.07 -15.33C-107.95 -15.33 -108.7 -15.25 -109.32 -15.1C-109.94 -14.95 -110.47 -14.76 -110.92 -14.52C-111.37 -14.28 -111.75 -14.01 -112.06 -13.71C-112.37 -13.41 -112.67 -13.11 -112.95 -12.81L-111.39 -11.25C-111.11 -11.71 -110.83 -12.12 -110.55 -12.49C-110.27 -12.87 -109.96 -13.17 -109.63 -13.42C-109.3 -13.68 -108.93 -13.87 -108.51 -14.01C-108.09 -14.15 -107.6 -14.22 -107.04 -14.22C-105.74 -14.22 -104.85 -13.82 -104.35 -13.02C-103.86 -12.22 -103.62 -11 -103.62 -9.36L-103.62 -8.07C-104.14 -8.71 -104.8 -9.21 -105.61 -9.55C-106.42 -9.9 -107.28 -10.08 -108.18 -10.08C-109.08 -10.08 -109.88 -9.92 -110.58 -9.6C-111.28 -9.28 -111.87 -8.86 -112.35 -8.35C-112.83 -7.84 -113.19 -7.27 -113.43 -6.63C-113.67 -5.99 -113.79 -5.35 -113.79 -4.71C-113.79 -4.09 -113.68 -3.48 -113.46 -2.88C-113.24 -2.28 -112.91 -1.74 -112.47 -1.26C-112.03 -0.78 -111.48 -0.39 -110.82 -0.09C-110.16 0.21 -109.4 0.36 -108.54 0.36C-107.64 0.36 -106.74 0.2 -105.84 -0.13C-104.94 -0.46 -104.2 -0.91 -103.62 -1.47L-103.62 0L-101.19 0L-101.19 -8.19C-101.19 -9.09 -101.22 -9.97 -101.28 -10.83C-101.34 -11.69 -101.55 -12.45 -101.92 -13.11C-102.3 -13.77 -102.88 -14.31 -103.68 -14.71C-104.48 -15.12 -105.61 -15.33 -107.07 -15.33ZM-103.62 -5.94L-103.62 -3.63C-103.8 -3.23 -104.03 -2.86 -104.31 -2.52C-104.59 -2.18 -104.91 -1.88 -105.25 -1.63C-105.6 -1.39 -105.97 -1.19 -106.36 -1.05C-106.75 -0.91 -107.14 -0.84 -107.52 -0.84C-107.92 -0.84 -108.34 -0.92 -108.78 -1.08C-109.22 -1.24 -109.62 -1.48 -109.98 -1.81C-110.34 -2.14 -110.63 -2.55 -110.86 -3.01C-111.09 -3.48 -111.21 -4.04 -111.21 -4.68C-111.21 -5.22 -111.12 -5.74 -110.94 -6.24C-110.76 -6.74 -110.5 -7.18 -110.17 -7.54C-109.84 -7.92 -109.44 -8.22 -108.96 -8.44C-108.48 -8.67 -107.95 -8.79 -107.37 -8.79C-106.79 -8.79 -106.29 -8.68 -105.87 -8.47C-105.45 -8.26 -105.09 -8.01 -104.79 -7.71C-104.49 -7.41 -104.25 -7.1 -104.05 -6.78C-103.86 -6.46 -103.72 -6.18 -103.62 -5.94Z M-91.41 5.7L-91.17 4.89C-91.07 4.93 -90.96 4.95 -90.84 4.95L-90.45 4.95C-90.17 4.95 -89.86 4.93 -89.53 4.89C-89.2 4.85 -88.9 4.78 -88.62 4.68C-88.34 4.58 -88.11 4.43 -87.93 4.23C-87.75 4.03 -87.66 3.76 -87.66 3.42C-87.66 3.18 -87.79 2.94 -88.05 2.7C-88.31 2.46 -88.82 2.34 -89.58 2.34C-89.72 2.34 -89.91 2.35 -90.13 2.37C-90.36 2.39 -90.55 2.42 -90.69 2.46L-90.06 0.33C-91.16 0.27 -92.15 0.03 -93.04 -0.39C-93.94 -0.81 -94.69 -1.37 -95.32 -2.07C-95.95 -2.77 -96.44 -3.6 -96.78 -4.54C-97.12 -5.5 -97.29 -6.51 -97.29 -7.59C-97.29 -8.65 -97.12 -9.65 -96.79 -10.59C-96.46 -11.53 -95.97 -12.35 -95.31 -13.05C-94.65 -13.75 -93.84 -14.31 -92.88 -14.71C-91.92 -15.12 -90.81 -15.33 -89.55 -15.33C-88.95 -15.33 -88.32 -15.27 -87.67 -15.16C-87.03 -15.06 -86.41 -14.85 -85.84 -14.56C-85.27 -14.28 -84.77 -13.89 -84.33 -13.42C-83.89 -12.96 -83.57 -12.36 -83.37 -11.64L-85.44 -11.64C-85.66 -12.34 -86.11 -12.93 -86.79 -13.41C-87.47 -13.89 -88.27 -14.13 -89.19 -14.13C-89.75 -14.13 -90.34 -14.01 -90.96 -13.78C-91.58 -13.56 -92.14 -13.18 -92.65 -12.67C-93.16 -12.16 -93.59 -11.49 -93.93 -10.63C-94.27 -9.78 -94.44 -8.75 -94.44 -7.53C-94.44 -6.35 -94.28 -5.35 -93.97 -4.54C-93.67 -3.73 -93.25 -3.09 -92.73 -2.59C-92.21 -2.1 -91.62 -1.75 -90.94 -1.53C-90.27 -1.31 -89.58 -1.2 -88.86 -1.2C-88.04 -1.2 -87.28 -1.33 -86.59 -1.6C-85.9 -1.87 -85.21 -2.3 -84.51 -2.88L-83.64 -1.74C-84.28 -1.26 -85.05 -0.82 -85.95 -0.4C-86.85 0.01 -87.88 0.25 -89.04 0.33L-89.31 1.32C-89.19 1.3 -89.07 1.29 -88.95 1.29L-88.59 1.29C-87.93 1.29 -87.33 1.48 -86.79 1.85C-86.25 2.22 -85.98 2.72 -85.98 3.36C-85.98 3.82 -86.08 4.21 -86.28 4.51C-86.48 4.82 -86.74 5.09 -87.06 5.3C-87.38 5.51 -87.75 5.65 -88.15 5.75C-88.56 5.84 -88.98 5.88 -89.4 5.88C-89.74 5.88 -90.09 5.86 -90.43 5.82C-90.78 5.78 -91.11 5.74 -91.41 5.7Z M-74.55 -15.33C-75.43 -15.33 -76.18 -15.25 -76.8 -15.1C-77.42 -14.95 -77.95 -14.76 -78.4 -14.52C-78.85 -14.28 -79.23 -14.01 -79.54 -13.71C-79.85 -13.41 -80.15 -13.11 -80.43 -12.81L-78.87 -11.25C-78.59 -11.71 -78.31 -12.12 -78.03 -12.49C-77.75 -12.87 -77.44 -13.17 -77.11 -13.42C-76.78 -13.68 -76.41 -13.87 -75.99 -14.01C-75.57 -14.15 -75.08 -14.22 -74.52 -14.22C-73.22 -14.22 -72.33 -13.82 -71.83 -13.02C-71.34 -12.22 -71.1 -11 -71.1 -9.36L-71.1 -8.07C-71.62 -8.71 -72.28 -9.21 -73.09 -9.55C-73.9 -9.9 -74.76 -10.08 -75.66 -10.08C-76.56 -10.08 -77.36 -9.92 -78.06 -9.6C-78.76 -9.28 -79.35 -8.86 -79.83 -8.35C-80.31 -7.84 -80.67 -7.27 -80.91 -6.63C-81.15 -5.99 -81.27 -5.35 -81.27 -4.71C-81.27 -4.09 -81.16 -3.48 -80.94 -2.88C-80.72 -2.28 -80.39 -1.74 -79.95 -1.26C-79.51 -0.78 -78.96 -0.39 -78.3 -0.09C-77.64 0.21 -76.88 0.36 -76.02 0.36C-75.12 0.36 -74.22 0.2 -73.32 -0.13C-72.42 -0.46 -71.68 -0.91 -71.1 -1.47L-71.1 0L-68.67 0L-68.67 -8.19C-68.67 -9.09 -68.7 -9.97 -68.76 -10.83C-68.82 -11.69 -69.03 -12.45 -69.4 -13.11C-69.78 -13.77 -70.36 -14.31 -71.16 -14.71C-71.96 -15.12 -73.09 -15.33 -74.55 -15.33ZM-71.1 -5.94L-71.1 -3.63C-71.28 -3.23 -71.51 -2.86 -71.79 -2.52C-72.07 -2.18 -72.39 -1.88 -72.73 -1.63C-73.08 -1.39 -73.45 -1.19 -73.84 -1.05C-74.23 -0.91 -74.62 -0.84 -75 -0.84C-75.4 -0.84 -75.82 -0.92 -76.26 -1.08C-76.7 -1.24 -77.1 -1.48 -77.46 -1.81C-77.82 -2.14 -78.11 -2.55 -78.34 -3.01C-78.57 -3.48 -78.69 -4.04 -78.69 -4.68C-78.69 -5.22 -78.6 -5.74 -78.42 -6.24C-78.24 -6.74 -77.98 -7.18 -77.65 -7.54C-77.32 -7.92 -76.92 -8.22 -76.44 -8.44C-75.96 -8.67 -75.43 -8.79 -74.85 -8.79C-74.27 -8.79 -73.77 -8.68 -73.35 -8.47C-72.93 -8.26 -72.57 -8.01 -72.27 -7.71C-71.97 -7.41 -71.73 -7.1 -71.53 -6.78C-71.34 -6.46 -71.2 -6.18 -71.1 -5.94ZM-79.14 -17.67L-79.95 -18.12C-79.67 -18.94 -79.24 -19.62 -78.67 -20.17C-78.1 -20.72 -77.44 -21 -76.68 -21C-76.22 -21 -75.69 -20.87 -75.07 -20.62C-74.46 -20.38 -73.73 -20.11 -72.87 -19.83C-72.69 -19.79 -72.48 -19.74 -72.25 -19.68C-72.03 -19.62 -71.79 -19.59 -71.55 -19.59C-71.21 -19.59 -70.87 -19.69 -70.53 -19.87C-70.19 -20.06 -69.91 -20.42 -69.69 -20.94L-68.79 -20.52C-69.13 -19.46 -69.6 -18.7 -70.18 -18.22C-70.77 -17.75 -71.42 -17.52 -72.12 -17.52C-72.64 -17.52 -73.2 -17.63 -73.8 -17.85C-74.4 -18.07 -75.06 -18.32 -75.78 -18.6C-76 -18.7 -76.24 -18.79 -76.48 -18.87C-76.73 -18.95 -76.99 -18.99 -77.25 -18.99C-77.59 -18.99 -77.93 -18.86 -78.28 -18.61C-78.63 -18.37 -78.92 -18.05 -79.14 -17.67Z M-49.23 -7.47C-49.23 -8.51 -49.41 -9.5 -49.77 -10.45C-50.13 -11.4 -50.65 -12.24 -51.31 -12.96C-51.99 -13.68 -52.8 -14.25 -53.74 -14.68C-54.69 -15.12 -55.76 -15.33 -56.94 -15.33C-58.14 -15.33 -59.23 -15.12 -60.19 -14.68C-61.16 -14.25 -61.99 -13.68 -62.65 -12.96C-63.32 -12.24 -63.84 -11.4 -64.21 -10.45C-64.58 -9.51 -64.77 -8.51 -64.77 -7.47C-64.77 -6.45 -64.58 -5.47 -64.21 -4.51C-63.84 -3.57 -63.33 -2.73 -62.65 -2.01C-61.99 -1.29 -61.17 -0.71 -60.19 -0.28C-59.23 0.14 -58.14 0.36 -56.94 0.36C-55.76 0.36 -54.69 0.15 -53.74 -0.27C-52.8 -0.69 -51.99 -1.26 -51.31 -1.98C-50.65 -2.7 -50.13 -3.54 -49.77 -4.48C-49.41 -5.44 -49.23 -6.43 -49.23 -7.47ZM-52.08 -7.47C-52.08 -6.09 -52.23 -4.96 -52.53 -4.09C-52.83 -3.22 -53.22 -2.55 -53.7 -2.07C-54.18 -1.59 -54.71 -1.27 -55.29 -1.09C-55.87 -0.92 -56.43 -0.84 -56.97 -0.84C-57.51 -0.84 -58.07 -0.92 -58.65 -1.09C-59.23 -1.27 -59.77 -1.59 -60.25 -2.07C-60.74 -2.55 -61.15 -3.22 -61.45 -4.09C-61.76 -4.96 -61.92 -6.09 -61.92 -7.47C-61.92 -8.87 -61.76 -10 -61.45 -10.87C-61.15 -11.74 -60.75 -12.42 -60.25 -12.9C-59.77 -13.38 -59.23 -13.71 -58.65 -13.87C-58.07 -14.04 -57.51 -14.13 -56.97 -14.13C-56.43 -14.13 -55.87 -14.04 -55.29 -13.87C-54.71 -13.71 -54.18 -13.38 -53.7 -12.9C-53.22 -12.42 -52.83 -11.74 -52.53 -10.87C-52.23 -10 -52.08 -8.87 -52.08 -7.47Z M-21.51 -6.84L-32.91 -6.84C-32.91 -5.62 -32.73 -4.62 -32.37 -3.84C-32.01 -3.06 -31.56 -2.45 -31.02 -2.01C-30.48 -1.57 -29.89 -1.26 -29.26 -1.09C-28.63 -0.92 -28.04 -0.84 -27.48 -0.84C-26.98 -0.84 -26.53 -0.89 -26.11 -1C-25.71 -1.12 -25.31 -1.27 -24.93 -1.47C-24.55 -1.67 -24.18 -1.92 -23.8 -2.22C-23.43 -2.52 -23.04 -2.85 -22.62 -3.21L-21.66 -2.25C-22.46 -1.41 -23.4 -0.76 -24.48 -0.31C-25.56 0.14 -26.74 0.36 -28.02 0.36C-29.34 0.36 -30.49 0.14 -31.45 -0.31C-32.42 -0.76 -33.22 -1.36 -33.85 -2.11C-34.48 -2.86 -34.95 -3.72 -35.26 -4.66C-35.57 -5.62 -35.73 -6.59 -35.73 -7.59C-35.73 -8.79 -35.55 -9.87 -35.19 -10.81C-34.83 -11.76 -34.33 -12.57 -33.69 -13.24C-33.05 -13.92 -32.3 -14.43 -31.44 -14.77C-30.58 -15.12 -29.64 -15.3 -28.62 -15.3C-27.66 -15.3 -26.75 -15.14 -25.89 -14.82C-25.03 -14.5 -24.28 -14.02 -23.62 -13.38C-22.98 -12.74 -22.46 -11.93 -22.08 -10.95C-21.7 -9.97 -21.51 -8.81 -21.51 -7.47ZM-32.91 -8.04L-24.12 -8.04C-24.12 -9.98 -24.51 -11.5 -25.3 -12.61C-26.09 -13.72 -27.2 -14.28 -28.62 -14.28C-29.36 -14.28 -30 -14.1 -30.54 -13.75C-31.08 -13.41 -31.52 -12.94 -31.87 -12.36C-32.22 -11.78 -32.48 -11.11 -32.65 -10.36C-32.83 -9.61 -32.91 -8.84 -32.91 -8.04Z M-5.07 0L-7.62 0L-7.62 -9.87C-7.62 -10.07 -7.64 -10.39 -7.68 -10.83C-7.72 -11.27 -7.85 -11.71 -8.05 -12.15C-8.26 -12.59 -8.6 -12.97 -9.06 -13.3C-9.52 -13.63 -10.17 -13.8 -11.01 -13.8C-11.53 -13.8 -12.03 -13.71 -12.52 -13.53C-13.01 -13.35 -13.45 -13.07 -13.83 -12.69C-14.21 -12.31 -14.51 -11.84 -14.73 -11.28C-14.95 -10.72 -15.06 -10.05 -15.06 -9.27L-15.06 0L-17.61 0L-17.61 -15L-15.06 -15L-15.06 -13.08L-14.94 -13.08L-14.46 -13.56C-13.76 -14.26 -13.05 -14.73 -12.33 -14.98C-11.61 -15.24 -10.96 -15.35 -10.38 -15.33C-9.06 -15.33 -8.04 -15.1 -7.32 -14.65C-6.6 -14.2 -6.07 -13.68 -5.74 -13.06C-5.41 -12.45 -5.22 -11.83 -5.16 -11.2C-5.1 -10.57 -5.07 -10.08 -5.07 -9.72Z M7.35 -1.2C8.17 -1.2 8.93 -1.33 9.62 -1.6C10.31 -1.87 11 -2.3 11.7 -2.88L12.57 -1.74C11.89 -1.22 11.06 -0.74 10.07 -0.3C9.07 0.14 7.92 0.36 6.6 0.36C5.42 0.36 4.36 0.16 3.42 -0.25C2.48 -0.67 1.67 -1.22 1 -1.93C0.33 -2.64 -0.18 -3.48 -0.54 -4.45C-0.9 -5.42 -1.08 -6.47 -1.08 -7.59C-1.08 -8.65 -0.91 -9.65 -0.58 -10.59C-0.25 -11.53 0.24 -12.35 0.9 -13.05C1.56 -13.75 2.37 -14.31 3.33 -14.71C4.29 -15.12 5.4 -15.33 6.66 -15.33C7.26 -15.33 7.89 -15.27 8.54 -15.16C9.18 -15.06 9.8 -14.85 10.37 -14.56C10.93 -14.28 11.44 -13.89 11.88 -13.42C12.32 -12.96 12.64 -12.36 12.84 -11.64L10.77 -11.64C10.55 -12.34 10.1 -12.93 9.42 -13.41C8.74 -13.89 7.94 -14.13 7.02 -14.13C6.46 -14.13 5.87 -14.01 5.25 -13.78C4.63 -13.56 4.07 -13.18 3.56 -12.67C3.05 -12.16 2.62 -11.49 2.28 -10.63C1.94 -9.78 1.77 -8.75 1.77 -7.53C1.77 -6.35 1.93 -5.35 2.24 -4.54C2.54 -3.73 2.96 -3.09 3.48 -2.59C4 -2.1 4.59 -1.75 5.27 -1.53C5.94 -1.31 6.63 -1.2 7.35 -1.2Z M30.78 -7.47C30.78 -8.51 30.6 -9.5 30.24 -10.45C29.88 -11.4 29.36 -12.24 28.69 -12.96C28.02 -13.68 27.21 -14.25 26.26 -14.68C25.32 -15.12 24.25 -15.33 23.07 -15.33C21.87 -15.33 20.78 -15.12 19.81 -14.68C18.85 -14.25 18.02 -13.68 17.35 -12.96C16.69 -12.24 16.17 -11.4 15.79 -10.45C15.43 -9.51 15.24 -8.51 15.24 -7.47C15.24 -6.45 15.43 -5.47 15.79 -4.51C16.17 -3.57 16.68 -2.73 17.35 -2.01C18.02 -1.29 18.84 -0.71 19.81 -0.28C20.78 0.14 21.87 0.36 23.07 0.36C24.25 0.36 25.32 0.15 26.26 -0.27C27.21 -0.69 28.02 -1.26 28.69 -1.98C29.36 -2.7 29.88 -3.54 30.24 -4.48C30.6 -5.44 30.78 -6.43 30.78 -7.47ZM27.93 -7.47C27.93 -6.09 27.78 -4.96 27.48 -4.09C27.18 -3.22 26.79 -2.55 26.31 -2.07C25.83 -1.59 25.3 -1.27 24.72 -1.09C24.14 -0.92 23.58 -0.84 23.04 -0.84C22.5 -0.84 21.94 -0.92 21.36 -1.09C20.78 -1.27 20.24 -1.59 19.76 -2.07C19.27 -2.55 18.86 -3.22 18.56 -4.09C18.25 -4.96 18.09 -6.09 18.09 -7.47C18.09 -8.87 18.25 -10 18.56 -10.87C18.86 -11.74 19.26 -12.42 19.76 -12.9C20.24 -13.38 20.78 -13.71 21.36 -13.87C21.94 -14.04 22.5 -14.13 23.04 -14.13C23.58 -14.13 24.14 -14.04 24.72 -13.87C25.3 -13.71 25.83 -13.38 26.31 -12.9C26.79 -12.42 27.18 -11.74 27.48 -10.87C27.78 -10 27.93 -8.87 27.93 -7.47Z M47.22 0L44.67 0L44.67 -9.87C44.67 -10.07 44.65 -10.39 44.61 -10.83C44.57 -11.27 44.45 -11.71 44.24 -12.15C44.03 -12.59 43.69 -12.97 43.23 -13.3C42.77 -13.63 42.12 -13.8 41.28 -13.8C40.76 -13.8 40.26 -13.71 39.77 -13.53C39.28 -13.35 38.84 -13.07 38.46 -12.69C38.08 -12.31 37.78 -11.84 37.56 -11.28C37.34 -10.72 37.23 -10.05 37.23 -9.27L37.23 0L34.68 0L34.68 -15L37.23 -15L37.23 -13.08L37.35 -13.08L37.83 -13.56C38.53 -14.26 39.24 -14.73 39.96 -14.98C40.68 -15.24 41.33 -15.35 41.91 -15.33C43.23 -15.33 44.25 -15.1 44.97 -14.65C45.69 -14.2 46.22 -13.68 46.54 -13.06C46.88 -12.45 47.07 -11.83 47.13 -11.2C47.19 -10.57 47.22 -10.08 47.22 -9.72Z M50.61 -13.8L53.22 -13.8L53.22 -4.56C53.22 -3.78 53.34 -3.1 53.58 -2.52C53.82 -1.94 54.14 -1.46 54.53 -1.09C54.92 -0.73 55.36 -0.45 55.86 -0.27C56.36 -0.09 56.87 0 57.39 0C58.63 0 59.74 -0.49 60.72 -1.47L59.31 -2.91C59.11 -2.49 58.85 -2.1 58.53 -1.74C58.21 -1.38 57.81 -1.2 57.33 -1.2C56.95 -1.2 56.66 -1.29 56.45 -1.47C56.24 -1.65 56.08 -1.87 55.98 -2.14C55.88 -2.41 55.82 -2.7 55.8 -3.01C55.78 -3.33 55.77 -3.6 55.77 -3.84L55.77 -13.8L59.4 -13.8L59.4 -15L55.77 -15L55.77 -19.62L53.22 -19.62L53.22 -15L50.61 -15Z M63.36 -15L65.91 -15L65.91 -12.6L66.09 -12.6C66.45 -13.5 66.91 -14.18 67.47 -14.64C68.03 -15.1 68.73 -15.33 69.57 -15.33C69.67 -15.33 69.83 -15.31 70.04 -15.28C70.25 -15.25 70.47 -15.19 70.72 -15.1C70.98 -15.01 71.22 -14.89 71.47 -14.73C71.73 -14.57 71.94 -14.37 72.12 -14.13L71.1 -12.27C70.92 -12.53 70.63 -12.81 70.25 -13.11C69.86 -13.41 69.43 -13.56 68.97 -13.56C68.63 -13.56 68.28 -13.48 67.92 -13.32C67.56 -13.16 67.23 -12.9 66.93 -12.54C66.63 -12.18 66.38 -11.71 66.19 -11.14C66.01 -10.57 65.91 -9.88 65.91 -9.06L65.91 0L63.36 0Z M80.34 -15.33C79.46 -15.33 78.71 -15.25 78.09 -15.1C77.47 -14.95 76.94 -14.76 76.49 -14.52C76.04 -14.28 75.66 -14.01 75.35 -13.71C75.04 -13.41 74.74 -13.11 74.46 -12.81L76.02 -11.25C76.3 -11.71 76.58 -12.12 76.86 -12.49C77.14 -12.87 77.44 -13.17 77.77 -13.42C78.1 -13.68 78.48 -13.87 78.9 -14.01C79.32 -14.15 79.81 -14.22 80.37 -14.22C81.67 -14.22 82.56 -13.82 83.06 -13.02C83.55 -12.22 83.79 -11 83.79 -9.36L83.79 -8.07C83.27 -8.71 82.6 -9.21 81.8 -9.55C80.99 -9.9 80.13 -10.08 79.23 -10.08C78.33 -10.08 77.53 -9.92 76.83 -9.6C76.13 -9.28 75.54 -8.86 75.06 -8.35C74.58 -7.84 74.22 -7.27 73.98 -6.63C73.74 -5.99 73.62 -5.35 73.62 -4.71C73.62 -4.09 73.73 -3.48 73.95 -2.88C74.17 -2.28 74.5 -1.74 74.94 -1.26C75.38 -0.78 75.93 -0.39 76.59 -0.09C77.25 0.21 78.01 0.36 78.87 0.36C79.77 0.36 80.67 0.2 81.57 -0.13C82.47 -0.46 83.21 -0.91 83.79 -1.47L83.79 0L86.22 0L86.22 -8.19C86.22 -9.09 86.19 -9.97 86.13 -10.83C86.07 -11.69 85.86 -12.45 85.49 -13.11C85.11 -13.77 84.53 -14.31 83.73 -14.71C82.93 -15.12 81.8 -15.33 80.34 -15.33ZM83.79 -5.94L83.79 -3.63C83.61 -3.23 83.38 -2.86 83.1 -2.52C82.82 -2.18 82.5 -1.88 82.16 -1.63C81.81 -1.39 81.44 -1.19 81.05 -1.05C80.66 -0.91 80.27 -0.84 79.89 -0.84C79.49 -0.84 79.07 -0.92 78.63 -1.08C78.19 -1.24 77.79 -1.48 77.43 -1.81C77.07 -2.14 76.78 -2.55 76.55 -3.01C76.32 -3.48 76.2 -4.04 76.2 -4.68C76.2 -5.22 76.29 -5.74 76.47 -6.24C76.65 -6.74 76.91 -7.18 77.24 -7.54C77.57 -7.92 77.97 -8.22 78.45 -8.44C78.93 -8.67 79.46 -8.79 80.04 -8.79C80.62 -8.79 81.12 -8.68 81.54 -8.47C81.96 -8.26 82.32 -8.01 82.62 -7.71C82.92 -7.41 83.16 -7.1 83.35 -6.78C83.55 -6.46 83.69 -6.18 83.79 -5.94Z M107.04 -15.33C106.16 -15.33 105.41 -15.25 104.79 -15.1C104.17 -14.95 103.64 -14.76 103.19 -14.52C102.74 -14.28 102.36 -14.01 102.05 -13.71C101.74 -13.41 101.44 -13.11 101.16 -12.81L102.72 -11.25C103 -11.71 103.28 -12.12 103.56 -12.49C103.84 -12.87 104.15 -13.17 104.48 -13.42C104.81 -13.68 105.18 -13.87 105.6 -14.01C106.02 -14.15 106.51 -14.22 107.07 -14.22C108.37 -14.22 109.26 -13.82 109.76 -13.02C110.25 -12.22 110.49 -11 110.49 -9.36L110.49 -8.07C109.97 -8.71 109.31 -9.21 108.5 -9.55C107.69 -9.9 106.83 -10.08 105.93 -10.08C105.03 -10.08 104.23 -9.92 103.53 -9.6C102.83 -9.28 102.24 -8.86 101.76 -8.35C101.28 -7.84 100.92 -7.27 100.68 -6.63C100.44 -5.99 100.32 -5.35 100.32 -4.71C100.32 -4.09 100.43 -3.48 100.65 -2.88C100.87 -2.28 101.2 -1.74 101.64 -1.26C102.08 -0.78 102.63 -0.39 103.29 -0.09C103.95 0.21 104.71 0.36 105.57 0.36C106.47 0.36 107.37 0.2 108.27 -0.13C109.17 -0.46 109.91 -0.91 110.49 -1.47L110.49 0L112.92 0L112.92 -8.19C112.92 -9.09 112.89 -9.97 112.83 -10.83C112.77 -11.69 112.56 -12.45 112.19 -13.11C111.81 -13.77 111.23 -14.31 110.43 -14.71C109.63 -15.12 108.5 -15.33 107.04 -15.33ZM110.49 -5.94L110.49 -3.63C110.31 -3.23 110.08 -2.86 109.8 -2.52C109.52 -2.18 109.2 -1.88 108.86 -1.63C108.51 -1.39 108.14 -1.19 107.75 -1.05C107.36 -0.91 106.97 -0.84 106.59 -0.84C106.19 -0.84 105.77 -0.92 105.33 -1.08C104.89 -1.24 104.49 -1.48 104.13 -1.81C103.77 -2.14 103.48 -2.55 103.25 -3.01C103.02 -3.48 102.9 -4.04 102.9 -4.68C102.9 -5.22 102.99 -5.74 103.17 -6.24C103.35 -6.74 103.61 -7.18 103.94 -7.54C104.27 -7.92 104.67 -8.22 105.15 -8.44C105.63 -8.67 106.16 -8.79 106.74 -8.79C107.32 -8.79 107.82 -8.68 108.24 -8.47C108.66 -8.26 109.02 -8.01 109.32 -7.71C109.62 -7.41 109.86 -7.1 110.06 -6.78C110.25 -6.46 110.39 -6.18 110.49 -5.94Z M141.54 -6.84L130.14 -6.84C130.14 -5.62 130.32 -4.62 130.68 -3.84C131.04 -3.06 131.49 -2.45 132.03 -2.01C132.57 -1.57 133.16 -1.26 133.79 -1.09C134.42 -0.92 135.01 -0.84 135.57 -0.84C136.07 -0.84 136.52 -0.89 136.94 -1C137.34 -1.12 137.74 -1.27 138.12 -1.47C138.5 -1.67 138.87 -1.92 139.25 -2.22C139.62 -2.52 140.01 -2.85 140.43 -3.21L141.39 -2.25C140.59 -1.41 139.65 -0.76 138.57 -0.31C137.49 0.14 136.31 0.36 135.03 0.36C133.71 0.36 132.56 0.14 131.6 -0.31C130.63 -0.76 129.83 -1.36 129.2 -2.11C128.57 -2.86 128.1 -3.72 127.79 -4.66C127.48 -5.62 127.32 -6.59 127.32 -7.59C127.32 -8.79 127.5 -9.87 127.86 -10.81C128.22 -11.76 128.72 -12.57 129.36 -13.24C130 -13.92 130.75 -14.43 131.61 -14.77C132.47 -15.12 133.41 -15.3 134.43 -15.3C135.39 -15.3 136.3 -15.14 137.16 -14.82C138.02 -14.5 138.77 -14.02 139.43 -13.38C140.07 -12.74 140.59 -11.93 140.97 -10.95C141.35 -9.97 141.54 -8.81 141.54 -7.47ZM130.14 -8.04L138.93 -8.04C138.93 -9.98 138.54 -11.5 137.75 -12.61C136.96 -13.72 135.85 -14.28 134.43 -14.28C133.69 -14.28 133.05 -14.1 132.51 -13.75C131.97 -13.41 131.53 -12.94 131.18 -12.36C130.83 -11.78 130.57 -11.11 130.4 -10.36C130.22 -9.61 130.14 -8.84 130.14 -8.04Z M150.42 -6.21L145.74 0L143.97 0L149.55 -7.38L143.94 -15L146.97 -15L151.08 -9.39L155.25 -15L156.99 -15L151.95 -8.22L158.07 0L155.01 0Z M161.37 7.5L161.37 -15L163.92 -15L163.92 -12.57L164.04 -12.57C164.78 -14.41 166.34 -15.33 168.72 -15.33C169.72 -15.33 170.64 -15.15 171.48 -14.77C172.32 -14.4 173.04 -13.87 173.66 -13.18C174.27 -12.49 174.74 -11.67 175.08 -10.71C175.42 -9.75 175.59 -8.67 175.59 -7.47C175.59 -6.29 175.42 -5.21 175.08 -4.24C174.74 -3.28 174.27 -2.45 173.66 -1.77C173.04 -1.09 172.32 -0.56 171.48 -0.19C170.64 0.17 169.72 0.36 168.72 0.36C168.24 0.36 167.76 0.31 167.3 0.21C166.83 0.11 166.38 -0.05 165.96 -0.27C165.54 -0.49 165.17 -0.78 164.84 -1.14C164.51 -1.5 164.24 -1.94 164.04 -2.46L163.92 -2.46L163.92 7.5ZM163.92 -9L163.92 -6.39C163.92 -5.57 164.03 -4.84 164.27 -4.2C164.5 -3.56 164.8 -3.01 165.18 -2.56C165.56 -2.11 166 -1.78 166.5 -1.54C167 -1.31 167.53 -1.2 168.09 -1.2C168.71 -1.2 169.3 -1.31 169.86 -1.54C170.42 -1.78 170.91 -2.14 171.35 -2.65C171.78 -3.16 172.11 -3.82 172.37 -4.62C172.62 -5.42 172.74 -6.39 172.74 -7.53C172.74 -8.65 172.62 -9.61 172.37 -10.41C172.11 -11.21 171.78 -11.86 171.36 -12.36C170.94 -12.86 170.45 -13.22 169.88 -13.45C169.31 -13.68 168.71 -13.8 168.09 -13.8C167.51 -13.8 166.97 -13.68 166.46 -13.42C165.95 -13.18 165.5 -12.84 165.12 -12.4C164.74 -11.97 164.45 -11.46 164.24 -10.87C164.03 -10.29 163.92 -9.66 163.92 -9Z M192.81 -6.84L181.41 -6.84C181.41 -5.62 181.59 -4.62 181.95 -3.84C182.31 -3.06 182.76 -2.45 183.3 -2.01C183.84 -1.57 184.43 -1.26 185.05 -1.09C185.69 -0.92 186.28 -0.84 186.84 -0.84C187.34 -0.84 187.79 -0.89 188.21 -1C188.61 -1.12 189.01 -1.27 189.39 -1.47C189.77 -1.67 190.14 -1.92 190.52 -2.22C190.89 -2.52 191.28 -2.85 191.7 -3.21L192.66 -2.25C191.86 -1.41 190.92 -0.76 189.84 -0.31C188.76 0.14 187.58 0.36 186.3 0.36C184.98 0.36 183.83 0.14 182.86 -0.31C181.9 -0.76 181.1 -1.36 180.46 -2.11C179.83 -2.86 179.37 -3.72 179.05 -4.66C178.75 -5.62 178.59 -6.59 178.59 -7.59C178.59 -8.79 178.77 -9.87 179.13 -10.81C179.49 -11.76 179.99 -12.57 180.63 -13.24C181.27 -13.92 182.02 -14.43 182.88 -14.77C183.74 -15.12 184.68 -15.3 185.7 -15.3C186.66 -15.3 187.57 -15.14 188.43 -14.82C189.29 -14.5 190.04 -14.02 190.7 -13.38C191.34 -12.74 191.86 -11.93 192.24 -10.95C192.62 -9.97 192.81 -8.81 192.81 -7.47ZM181.41 -8.04L190.2 -8.04C190.2 -9.98 189.81 -11.5 189.02 -12.61C188.23 -13.72 187.12 -14.28 185.7 -14.28C184.96 -14.28 184.32 -14.1 183.78 -13.75C183.24 -13.41 182.8 -12.94 182.45 -12.36C182.1 -11.78 181.84 -11.11 181.67 -10.36C181.49 -9.61 181.41 -8.84 181.41 -8.04Z M196.71 -15L199.26 -15L199.26 -12.6L199.44 -12.6C199.8 -13.5 200.26 -14.18 200.82 -14.64C201.38 -15.1 202.08 -15.33 202.92 -15.33C203.02 -15.33 203.18 -15.31 203.39 -15.28C203.6 -15.25 203.82 -15.19 204.08 -15.1C204.33 -15.01 204.57 -14.89 204.83 -14.73C205.08 -14.57 205.29 -14.37 205.47 -14.13L204.45 -12.27C204.27 -12.53 203.99 -12.81 203.6 -13.11C203.21 -13.41 202.78 -13.56 202.32 -13.56C201.98 -13.56 201.63 -13.48 201.27 -13.32C200.91 -13.16 200.58 -12.9 200.28 -12.54C199.98 -12.18 199.73 -11.71 199.55 -11.14C199.36 -10.57 199.26 -9.88 199.26 -9.06L199.26 0L196.71 0Z M209.13 -15L211.68 -15L211.68 0L209.13 0ZM208.77 -19.74C208.77 -20.18 208.93 -20.56 209.25 -20.88C209.57 -21.2 209.95 -21.36 210.39 -21.36C210.83 -21.36 211.21 -21.2 211.53 -20.88C211.85 -20.56 212.01 -20.18 212.01 -19.74C212.01 -19.3 211.85 -18.92 211.53 -18.6C211.21 -18.28 210.83 -18.12 210.39 -18.12C209.95 -18.12 209.57 -18.28 209.25 -18.6C208.93 -18.92 208.77 -19.3 208.77 -19.74Z M230.73 -6.84L219.33 -6.84C219.33 -5.62 219.51 -4.62 219.87 -3.84C220.23 -3.06 220.68 -2.45 221.22 -2.01C221.76 -1.57 222.35 -1.26 222.98 -1.09C223.61 -0.92 224.2 -0.84 224.76 -0.84C225.26 -0.84 225.71 -0.89 226.13 -1C226.53 -1.12 226.93 -1.27 227.31 -1.47C227.69 -1.67 228.06 -1.92 228.44 -2.22C228.81 -2.52 229.2 -2.85 229.62 -3.21L230.58 -2.25C229.78 -1.41 228.84 -0.76 227.76 -0.31C226.68 0.14 225.5 0.36 224.22 0.36C222.9 0.36 221.75 0.14 220.79 -0.31C219.82 -0.76 219.02 -1.36 218.39 -2.11C217.76 -2.86 217.29 -3.72 216.98 -4.66C216.67 -5.62 216.51 -6.59 216.51 -7.59C216.51 -8.79 216.69 -9.87 217.05 -10.81C217.41 -11.76 217.91 -12.57 218.55 -13.24C219.19 -13.92 219.94 -14.43 220.8 -14.77C221.66 -15.12 222.6 -15.3 223.62 -15.3C224.58 -15.3 225.49 -15.14 226.35 -14.82C227.21 -14.5 227.96 -14.02 228.62 -13.38C229.26 -12.74 229.78 -11.93 230.16 -10.95C230.54 -9.97 230.73 -8.81 230.73 -7.47ZM219.33 -8.04L228.12 -8.04C228.12 -9.98 227.73 -11.5 226.94 -12.61C226.15 -13.72 225.04 -14.28 223.62 -14.28C222.88 -14.28 222.24 -14.1 221.7 -13.75C221.16 -13.41 220.72 -12.94 220.37 -12.36C220.02 -11.78 219.76 -11.11 219.59 -10.36C219.41 -9.61 219.33 -8.84 219.33 -8.04ZM223.59 -18.84L223.26 -18.64C223.04 -18.52 222.77 -18.34 222.44 -18.13C222.11 -17.92 221.75 -17.71 221.36 -17.47C220.97 -17.24 220.61 -17.02 220.28 -16.81C219.95 -16.6 219.67 -16.43 219.44 -16.3L219.09 -16.11L218.37 -17.01C218.37 -16.99 218.48 -17.09 218.7 -17.31C218.92 -17.53 219.2 -17.8 219.53 -18.12C219.86 -18.44 220.22 -18.79 220.61 -19.17C221 -19.55 221.36 -19.9 221.69 -20.22C222.02 -20.54 222.29 -20.81 222.51 -21.03L222.84 -21.36L224.34 -21.36L224.67 -21.04C224.89 -20.83 225.17 -20.57 225.5 -20.25C225.83 -19.93 226.19 -19.58 226.58 -19.2C226.97 -18.82 227.33 -18.47 227.66 -18.15C227.99 -17.83 228.26 -17.56 228.48 -17.34L228.81 -17.01L228.06 -16.08L227.73 -16.29L226.91 -16.81C226.58 -17.02 226.22 -17.25 225.83 -17.49C225.44 -17.73 225.08 -17.95 224.75 -18.15C224.42 -18.35 224.14 -18.52 223.92 -18.64Z M247.17 0L244.62 0L244.62 -9.87C244.62 -10.07 244.6 -10.39 244.56 -10.83C244.52 -11.27 244.4 -11.71 244.19 -12.15C243.98 -12.59 243.64 -12.97 243.18 -13.3C242.72 -13.63 242.07 -13.8 241.23 -13.8C240.71 -13.8 240.21 -13.71 239.72 -13.53C239.23 -13.35 238.79 -13.07 238.41 -12.69C238.03 -12.31 237.73 -11.84 237.51 -11.28C237.29 -10.72 237.18 -10.05 237.18 -9.27L237.18 0L234.63 0L234.63 -15L237.18 -15L237.18 -13.08L237.3 -13.08L237.78 -13.56C238.48 -14.26 239.19 -14.73 239.91 -14.98C240.63 -15.24 241.28 -15.35 241.86 -15.33C243.18 -15.33 244.2 -15.1 244.92 -14.65C245.64 -14.2 246.17 -13.68 246.5 -13.06C246.83 -12.45 247.02 -11.83 247.08 -11.2C247.14 -10.57 247.17 -10.08 247.17 -9.72Z M259.59 -1.2C260.41 -1.2 261.17 -1.33 261.86 -1.6C262.55 -1.87 263.24 -2.3 263.94 -2.88L264.81 -1.74C264.13 -1.22 263.3 -0.74 262.31 -0.3C261.32 0.14 260.16 0.36 258.84 0.36C257.66 0.36 256.6 0.16 255.66 -0.25C254.72 -0.67 253.91 -1.22 253.25 -1.93C252.57 -2.64 252.06 -3.48 251.7 -4.45C251.34 -5.42 251.16 -6.47 251.16 -7.59C251.16 -8.65 251.33 -9.65 251.66 -10.59C251.99 -11.53 252.48 -12.35 253.14 -13.05C253.8 -13.75 254.61 -14.31 255.57 -14.71C256.53 -15.12 257.64 -15.33 258.9 -15.33C259.5 -15.33 260.13 -15.27 260.77 -15.16C261.42 -15.06 262.03 -14.85 262.61 -14.56C263.18 -14.28 263.68 -13.89 264.12 -13.42C264.56 -12.96 264.88 -12.36 265.08 -11.64L263.01 -11.64C262.79 -12.34 262.34 -12.93 261.66 -13.41C260.98 -13.89 260.18 -14.13 259.26 -14.13C258.7 -14.13 258.11 -14.01 257.49 -13.78C256.87 -13.56 256.31 -13.18 255.8 -12.67C255.29 -12.16 254.86 -11.49 254.52 -10.63C254.18 -9.78 254.01 -8.75 254.01 -7.53C254.01 -6.35 254.17 -5.35 254.48 -4.54C254.78 -3.73 255.2 -3.09 255.72 -2.59C256.24 -2.1 256.83 -1.75 257.51 -1.53C258.18 -1.31 258.87 -1.2 259.59 -1.2Z M269.34 -15L271.89 -15L271.89 0L269.34 0ZM268.98 -19.74C268.98 -20.18 269.14 -20.56 269.46 -20.88C269.78 -21.2 270.16 -21.36 270.6 -21.36C271.04 -21.36 271.42 -21.2 271.74 -20.88C272.06 -20.56 272.22 -20.18 272.22 -19.74C272.22 -19.3 272.06 -18.92 271.74 -18.6C271.42 -18.28 271.04 -18.12 270.6 -18.12C270.16 -18.12 269.78 -18.28 269.46 -18.6C269.14 -18.92 268.98 -19.3 268.98 -19.74Z M283.14 -15.33C282.26 -15.33 281.51 -15.25 280.89 -15.1C280.27 -14.95 279.74 -14.76 279.28 -14.52C278.83 -14.28 278.46 -14.01 278.15 -13.71C277.84 -13.41 277.54 -13.11 277.26 -12.81L278.82 -11.25C279.1 -11.71 279.38 -12.12 279.66 -12.49C279.94 -12.87 280.25 -13.17 280.58 -13.42C280.9 -13.68 281.28 -13.87 281.7 -14.01C282.12 -14.15 282.61 -14.22 283.17 -14.22C284.47 -14.22 285.36 -13.82 285.86 -13.02C286.35 -12.22 286.59 -11 286.59 -9.36L286.59 -8.07C286.07 -8.71 285.4 -9.21 284.59 -9.55C283.78 -9.9 282.93 -10.08 282.03 -10.08C281.13 -10.08 280.33 -9.92 279.63 -9.6C278.93 -9.28 278.34 -8.86 277.86 -8.35C277.38 -7.84 277.02 -7.27 276.78 -6.63C276.54 -5.99 276.42 -5.35 276.42 -4.71C276.42 -4.09 276.53 -3.48 276.75 -2.88C276.97 -2.28 277.3 -1.74 277.74 -1.26C278.18 -0.78 278.73 -0.39 279.39 -0.09C280.05 0.21 280.81 0.36 281.67 0.36C282.57 0.36 283.47 0.2 284.37 -0.13C285.27 -0.46 286.01 -0.91 286.59 -1.47L286.59 0L289.02 0L289.02 -8.19C289.02 -9.09 288.99 -9.97 288.93 -10.83C288.87 -11.69 288.66 -12.45 288.28 -13.11C287.91 -13.77 287.33 -14.31 286.53 -14.71C285.73 -15.12 284.6 -15.33 283.14 -15.33ZM286.59 -5.94L286.59 -3.63C286.41 -3.23 286.18 -2.86 285.9 -2.52C285.62 -2.18 285.3 -1.88 284.96 -1.63C284.61 -1.39 284.24 -1.19 283.84 -1.05C283.46 -0.91 283.07 -0.84 282.69 -0.84C282.29 -0.84 281.87 -0.92 281.43 -1.08C280.99 -1.24 280.59 -1.48 280.23 -1.81C279.87 -2.14 279.58 -2.55 279.34 -3.01C279.12 -3.48 279 -4.04 279 -4.68C279 -5.22 279.09 -5.74 279.27 -6.24C279.45 -6.74 279.71 -7.18 280.03 -7.54C280.37 -7.92 280.77 -8.22 281.25 -8.44C281.73 -8.67 282.26 -8.79 282.84 -8.79C283.42 -8.79 283.92 -8.68 284.34 -8.47C284.76 -8.26 285.12 -8.01 285.42 -7.71C285.72 -7.41 285.96 -7.1 286.15 -6.78C286.35 -6.46 286.49 -6.18 286.59 -5.94Z"></path></g></g></svg>